<?xml version="1.0" encoding="UTF-8"?>
<svg xmlns="http://www.w3.org/2000/svg" version="1.1" viewBox="0 0 336 306">
  <defs>
    <style>
      .cls-1 {
        fill: #fed250;
      }

      .cls-2 {
        fill: #fff;
      }

      .cls-3 {
        fill: #222;
      }
    </style>
  </defs>
  <!-- Generator: Adobe Illustrator 28.6.0, SVG Export Plug-In . SVG Version: 1.2.0 Build 709)  -->
  <g>
    <g id="Layer_1">
      <g>
        <g>
          <g>
            <g>
              <g>
                <path class="cls-3" d="M208,156.6c-.2,5.1-3,12.2-1.4,16.6,2.3,4.5,8.6.6,11.5-1.7,5.2-4.2,9.1-10.2,11.3-16.5,2.1-6.4,1.9-13.9-2.5-19.1-4.3-5.1-13.9-6.7-16.5.9-2.3,6.1-1.3,13.1-2.3,19.6v.2s0,0,0,0Z"/>
                <path class="cls-3" d="M91.1,133.2c-8.5,3.5-4.6-19.5-3.7-24.1,1.3-6.6,3.4-13.1,6.6-18.9,12.5-23.1,33.4-28.7,58.5-28.5,9.8,0,22.2,0,31.9-1.3,8.6-1.2,14.2-13.9,19.2-8.9,3.9,3.9,11.6,7.5,14.1,12.5,6.3,12.4,2.1,28.1-8,37-8.8,8.1-21.3,9.9-32.7,11.8-11.4,1.6-26.9,2.7-39.2,3.9-9.3.9-17.6,1.3-26.2,4-3,1-5.9,2.2-8.5,3.9-3.9,2.6-7.8,6.7-11.9,8.6h-.1c0,0,0,0,0,0Z"/>
                <path class="cls-3" d="M89.5,133.6c-4.3-4.4-12.4-2-15.6,2.9-4.1,6-3.9,13.8-1.1,20.5,2.5,6.1,7.1,11.7,12.3,15.4,2.2,1.4,5.4,3.6,7.3,1.3,2.2-3.1.6-10.4.4-14.7-.4-4.5-.5-8.6-.5-12.9,0-4.6,0-9.5-2.7-12.4h-.1Z"/>
                <path class="cls-3" d="M91.3,152.3c-.4-1.6-.4-3.9-.3-6.6.4-5.9.8-13,4.3-18.1,10.1-13,32.2-13.5,47.8-15.5,13.4-1.4,25.3-3,39.3-4.6,4.8-.4,9.3-1.3,14-1.8,2.8-.3,6.2-.4,7.8,1,2.7,1.7,3.6,8.2,3.9,12,.4,5.2.8,10.2.9,14.8.2,5.3.2,11.2,0,15.8-.2,3-.5,5.6-1.2,6.9-.8,1.5-2.3,1.6-3.9,1.6-16.8-.4-79.8-1.8-108.4-2.5-2.1,0-3.9-.7-4.2-3h0c0-.1,0-.1,0-.1Z"/>
              </g>
              <path class="cls-3" d="M134.2,214c3-1.8,6.4-1.4,11-1.1,4.6.3,9.3.6,13.8,0,12.6-2.2,16.8-2.1,15.3,12.1-.7,11.2-9.3,17.1-20,17.6-8.7.7-19.1-2.9-21.9-11.8-1.7-4.9-2.6-13.7,1.7-16.7h.1Z"/>
              <path class="cls-3" d="M121.5,212.2c-6.7,1-12.8,3.2-18.6,5.6-13.9,5.9-18.6,9.7-29.6,18-8.6,6.4-16.3,15.7-23.6,25.5-2.8,3.8-8,11.4-9.8,14.5-1.2,2.1-1.7,3.9-2.3,5.7,23.2,3.3,224.7-.2,224.7-.2l17.3-14.4s-24.5,1.9-26.3-.3c-17.7-19-41.6-30.3-66.4-35.3-4.3-.8-11.7-2.8-12.2-1.2-1.6,5.3-9.7,11.5-17,12.6-5.2.9-10.7.2-15.6-1.7-5.5-2.1-1.1-29.6-6.2-30.4l-14.4,1.6h0Z"/>
            </g>
            <polygon class="cls-3" points="215.6 38.3 200.4 41 159.9 50.2 181.4 51.3 195 51.1 208.1 46.1 215.6 38.3"/>
            <path class="cls-3" d="M235.4,120.2l-2.1-.2c-2.1-.2-4.3-.1-6.4.2l-1.5.3v3.2l10-3.4h0Z"/>
          </g>
          <path class="cls-3" d="M91.9,173.4s2.6,11.4,11.6,23.5,30.8,17.1,30.8,17.1l10,1.5,3.9-2.4v-11.2l-9.7-3.4-6.3-2.9-6.4-5.1-9-10.1-5-11.4-1.5-5-2.3.3-5.1-1.8-5.2-4.2-5.6-5.7-1.8-.8,1.6,21.5h0Z"/>
        </g>
        <g>
          <g>
            <path class="cls-2" d="M223.7,145.8c-.2,5.1-3,12.2-1.4,16.6,2.3,4.5,8.6.6,11.5-1.7,5.2-4.2,9.1-10.2,11.3-16.5,2.1-6.4,1.9-13.9-2.5-19.1-4.3-5.1-13.9-6.7-16.5.9-2.3,6.1-1.3,13.1-2.3,19.6v.2s0,0,0,0Z"/>
            <path class="cls-2" d="M106.8,122.3c-8.5,3.5-4.6-19.5-3.7-24.1,1.3-6.6,3.4-13.1,6.6-18.9,12.5-23.1,33.4-28.7,58.5-28.5,9.8,0,22.2,0,31.9-1.3,8.6-1.2,14.2-13.9,19.2-8.9,3.9,3.9,11.6,7.5,14.1,12.5,6.3,12.4,2.1,28.1-8,37-8.8,8.1-21.3,9.9-32.7,11.8-11.4,1.6-26.9,2.7-39.2,3.9-9.3.9-17.6,1.3-26.2,4-3,1-5.9,2.2-8.5,3.9-3.9,2.6-7.8,6.7-11.9,8.6h-.1c0,0,0,0,0,0Z"/>
            <path class="cls-2" d="M105.2,122.8c-4.3-4.4-12.4-2-15.6,2.9-4.1,6-3.9,13.8-1.1,20.5,2.5,6.1,7.1,11.7,12.3,15.4,2.2,1.4,5.4,3.6,7.3,1.3,2.2-3.1.6-10.4.4-14.7-.4-4.5-.5-8.6-.5-12.9,0-4.6,0-9.5-2.7-12.4h-.1Z"/>
            <path class="cls-2" d="M107,141.5c-.4-1.6-.4-3.9-.3-6.6.4-5.9.8-13,4.3-18.1,10.1-13,32.2-13.5,47.8-15.5,13.4-1.4,25.3-3,39.3-4.6,4.8-.4,9.3-1.3,14-1.8,2.8-.3,6.2-.4,7.8,1,2.7,1.7,3.6,8.2,3.9,12,.4,5.2.8,10.2.9,14.8.2,5.3.2,11.2,0,15.8-.2,3-.5,5.6-1.2,6.9-.8,1.5-2.3,1.6-3.9,1.6-16.8-.4-79.8-1.8-108.4-2.5-2.1,0-3.9-.7-4.2-3h0c0-.1,0-.1,0-.1Z"/>
          </g>
          <path class="cls-2" d="M149.9,203.1c3-1.8,6.4-1.4,11-1.1,4.6.3,9.3.6,13.8,0,12.6-2.2,16.8-2.1,15.3,12.1-.7,11.2-9.3,17.1-20,17.6-8.7.7-19.1-2.9-21.9-11.8-1.7-4.9-2.6-13.7,1.7-16.7h.1q0,0,0,0Z"/>
          <path class="cls-1" d="M143.4,220.4c-5.6-.8-10.6.2-16.7,1.2-11.4,2-22.4,5.7-32.6,11.4-9.2,5.1-17.6,11.4-25,18.8-3.2,3.3-6.9,7.3-9.1,10-1.2,1.5-2.7,3.3-3.3,5,23.2,3.1,194.8.2,221.3,1,4.4-.3-6.1-10.9-9-14.1-17.7-18.3-41.6-29.1-66.4-34-4.3-.8-11.7-2.7-12.2-1.2-1.6,5.1-9.7,11-17,12.1-5.2.9-10.7.2-15.6-1.6-5.5-2.1-9.1-7.9-14.2-8.8h-.2Z"/>
        </g>
        <path class="cls-3" d="M174.3,152.9c-.5,0-.9-.4-1-.9l-.8-6.2-5-20.2c-.1-.5.2-1.1.7-1.2.5-.1,1.1.2,1.2.7l5,20.4.8,6.3c0,.5-.3,1.1-.9,1.1,0,0,0,0-.1,0Z"/>
        <path class="cls-1" d="M224.4,145.2l-116.8-1.6c.7,25.9,8.8,60.8,56.7,60.2,0,0,51.3,7.9,60.1-57.9"/>
        <path class="cls-3" d="M223.2,165.3c-1.1,0-1.7-.2-1.8-.2-.5-.2-.8-.7-.6-1.3.2-.5.7-.8,1.3-.6,0,0,6.4,1.8,15.8-9.4,5-6,7.4-13.2,6.6-20-.5-4.3-2.3-8-5-9.9-6-4.4-12.6.3-12.9.5-.4.3-1.1.2-1.4-.2-.3-.4-.2-1.1.2-1.4,0,0,8.1-5.8,15.3-.5,3.1,2.3,5.2,6.4,5.8,11.3.9,7.3-1.7,15.1-7,21.5-7.5,8.9-13.4,10.2-16.2,10.2Z"/>
        <path class="cls-3" d="M108,165.3c-2.4,0-7.4-1.4-14.9-10.3-5.4-6.4-7.9-14.2-7-21.5.6-4.9,2.7-9,5.8-11.3,7.2-5.3,15.2.5,15.3.5.4.3.5,1,.2,1.4-.3.4-1,.5-1.4.2-.3-.2-6.9-5-12.9-.5-2.7,2-4.5,5.6-5,9.9-.8,6.7,1.6,14,6.6,20,9.3,11.1,14.1,9.5,14.1,9.5.5-.2,1.1,0,1.3.6.2.5,0,1.1-.5,1.3-.2,0-.7.3-1.5.3Z"/>
        <path class="cls-3" d="M106.8,148.9c-.3,0-.6-.2-.8-.4l-9-13.6c-.3-.5-.2-1.1.3-1.4.5-.3,1.1-.2,1.4.3l9,13.6c.3.5.2,1.1-.3,1.4-.2.1-.4.2-.6.2Z"/>
        <path class="cls-3" d="M224.6,149.1c-.2,0-.4,0-.5-.1-.5-.3-.6-.9-.3-1.4l7.8-12.7c.3-.5.9-.6,1.4-.3.5.3.6.9.3,1.4l-7.8,12.7c-.2.3-.5.5-.9.5Z"/>
        <path class="cls-3" d="M169.9,205c-2.8,0-4.7-.2-5.1-.3-18.7.2-33.3-5.2-43.3-16.3-17.9-19.8-16.4-52.6-14.9-65.8.6-5.1,3.7-9.4,8.3-11.6,8.9-4.3,18.4-7,28.2-8l64.5-6.6c4.7-.5,9.2-2,13.2-4.3,5.1-3,9.3-7.3,11.9-12.5,3.5-6.7,8.9-24-15.6-39-.8-.5-1.8-.3-2.3.5-3.6,5.3-10.3,9-19.3,10.5-6.7,1.2-12.3.8-12.5.8l-6.1-.4c-27.2-1.5-47.4,4.8-59.9,18.6-18.1,20.1-13.6,49.6-13.6,49.9,0,.5-.3,1.1-.8,1.1-.5,0-1.1-.3-1.1-.8,0-.3-4.7-30.8,14-51.6,12.9-14.3,33.6-20.8,61.5-19.3l6.1.4c.2,0,21.9,1.4,30-10.4,1.1-1.6,3.3-2.1,5-1.1,6.7,4.1,27.8,19.4,16.4,41.6-2.7,5.2-6.7,9.6-11.8,12.8l1.3,7.4c6.2,42.3.7,72.5-16.5,89.6-13,12.9-29.4,14.8-37.6,14.8ZM164.9,202.7h0c.2,0,23.9,3.3,41.1-13.9,16.7-16.7,22-46.2,15.9-87.8l-1.2-6.6c-4,2.2-8.5,3.6-13.1,4l-64.5,6.6c-9.6,1-18.8,3.6-27.5,7.8-4,1.9-6.7,5.7-7.1,10.1-1.5,12.9-3,45.1,14.4,64.2,9.4,10.4,23.1,15.6,40.7,15.6s.8,0,1.2,0h0Z"/>
        <path class="cls-3" d="M167.7,232.3c-7.2,0-15.6-2.4-21.6-11.6l-.2-.3.2-4.7c1.2-6.3.7-12.8.7-12.8,0-.5.4-1,.9-1.1.6,0,1,.4,1.1.9,0,.3.5,6.7-.7,13.3l-.2,3.8c10,14.8,26.8,10.1,31.8,8.3,7.6-2.8,9.2-8.9,9.4-10-1.2-6.6-.4-16.3-.3-16.7,0-.5.5-1,1.1-.9.5,0,1,.5.9,1.1,0,0-.9,10,.4,16.4v.2s0,.2,0,.2c0,.3-1.3,8.2-10.7,11.7-2.3.9-7.1,2.3-12.7,2.3Z"/>
        <ellipse class="cls-3" cx="146.3" cy="128.9" rx="3.7" ry="7.5"/>
        <ellipse class="cls-3" cx="187.1" cy="128.9" rx="3.7" ry="7.5"/>
        <path class="cls-3" d="M57.2,267.7c-.2,0-.4,0-.5-.2-.5-.3-.6-.9-.3-1.4.3-.5,31-46.9,90-47h.5c.6,0,1,.4,1,1s-.4,1-1,1h-.5c-57.8,0-88,45.6-88.3,46.1-.2.3-.5.5-.8.5Z"/>
        <path class="cls-3" d="M273.2,271c-.3,0-.7-.2-.9-.5-.3-.5-.1-1.1.3-1.4l4.7-2.8c-3.3-5.3-27.4-40.1-87.5-47.2-.5,0-.9-.6-.9-1.1s.6-.9,1.1-.9c63.6,7.5,86.9,44.6,89.4,48.8.3.6.1,1.4-.5,1.7l-5.4,3.2c-.2,0-.3.1-.5.1ZM277.8,267h0,0ZM278.1,266s0,0,0,0h0Z"/>
        <path class="cls-3" d="M224.1,146.6h0l-116.5-2.1c-.6,0-1-.5-1-1s.5-1,1-1l116.5,2.1c.6,0,1,.5,1,1,0,.5-.5,1-1,1Z"/>
      </g>
    </g>
  </g>
</svg>