<?xml version="1.0" encoding="UTF-8"?>
<svg id="Icons_on_Landing_page" xmlns="http://www.w3.org/2000/svg" viewBox="0 0 24 24">
  <defs>
    <style>
      .cls-1 {
        stroke-linecap: round;
      }

      .cls-1, .cls-2 {
        stroke-width: .5px;
      }

      .cls-1, .cls-2, .cls-3 {
        fill: none;
        stroke: #222;
        stroke-miterlimit: 10;
      }

      .cls-3 {
        stroke-width: .65px;
      }
    </style>
  </defs>
  <rect class="cls-3" x="2.13" y="6" width="19.74" height="12" rx=".38" ry=".38"/>
  <g>
    <line class="cls-1" x1="12.15" y1="10.49" x2="19.95" y2="10.49"/>
    <line class="cls-1" x1="12.15" y1="11.88" x2="17.07" y2="11.88"/>
    <line class="cls-1" x1="17.91" y1="11.88" x2="19.95" y2="11.88"/>
    <line class="cls-1" x1="12.15" y1="13.51" x2="19.95" y2="13.51"/>
  </g>
  <g>
    <path class="cls-2" d="M5.5,13.05l-.75.32s-.1.05-.14.08c-.42.25-.68.71-.68,1.2v1.15c0,.11.09.19.19.19h5.61c.11,0,.19-.09.19-.19v-1.15c0-.49-.26-.95-.68-1.2-.05-.03-.09-.05-.14-.08l-.75-.32"/>
    <path class="cls-2" d="M8.87,11.81c.2-.45.32-.93.32-1.34,0-.1-.01-.2-.02-.3-2.69-.65-4.51,0-4.51,0-.01.1-.02.19-.02.29,0,.41.12.89.32,1.34,0,0,1.86,1.74,3.91,0Z"/>
    <path class="cls-2" d="M7.75,8.14c-.93-.2-1.64,0-1.64,0-.96.34-1.65,1.25-1.65,2.33,0,.95.54,2.2,1.33,2.86,0,0,1.06.94,2.28,0,.81-.63,1.33-1.85,1.33-2.86,0-1.08-.69-1.99-1.65-2.33"/>
    <line class="cls-2" x1="6.91" y1="13.75" x2="6.93" y2="16"/>
    <polyline class="cls-2" points="7.91 14.27 6.91 14.87 5.98 14.27"/>
    <polyline class="cls-2" points="7.91 15.13 6.91 15.56 5.98 15.13"/>
  </g>
</svg>