<?xml version="1.0" encoding="UTF-8"?>
<svg id="Icons_on_Landing_page" xmlns="http://www.w3.org/2000/svg" viewBox="0 0 24 24">
  <defs>
    <style>
      .cls-1 {
        fill: none;
        stroke: #222;
        stroke-linecap: round;
        stroke-linejoin: round;
        stroke-width: .75px;
      }
    </style>
  </defs>
  <path class="cls-1" d="M21.3,14.92v5.32c0,1.28-1.04,2.31-2.31,2.31H3.66c-1.28,0-2.31-1.04-2.31-2.31V5.94c0-1.28,1.04-2.31,2.31-2.31h5.05"/>
  <polygon class="cls-1" points="8.43 11.68 12.22 15.47 7.26 16.77 8.43 11.68"/>
  <polyline class="cls-1" points="12.22 15.47 20.98 6.58 17.44 3 8.43 11.68"/>
  <path class="cls-1" d="M17.44,3l1.03-.99c.79-.76,2.04-.76,2.83,0l.83.8c.7.67.71,1.78.02,2.47l-1.17,1.29"/>
</svg>