<?xml version="1.0" encoding="UTF-8"?>
<svg id="Icons_on_Landing_page" xmlns="http://www.w3.org/2000/svg" viewBox="0 0 24 24">
  <defs>
    <style>
      .cls-1 {
        stroke-linecap: round;
      }

      .cls-1, .cls-2, .cls-3 {
        fill: none;
        stroke: #222;
        stroke-miterlimit: 10;
      }

      .cls-1, .cls-3 {
        stroke-width: .65px;
      }

      .cls-2 {
        stroke-width: .5px;
      }
    </style>
  </defs>
  <rect class="cls-3" x="2.13" y="5.5" width="19.74" height="12" rx=".38" ry=".38"/>
  <line class="cls-1" x1="8.96" y1="7.05" x2="16.02" y2="7.05"/>
  <g>
    <line class="cls-1" x1="11.86" y1="10.49" x2="19.66" y2="10.49"/>
    <line class="cls-1" x1="11.86" y1="11.88" x2="16.78" y2="11.88"/>
    <line class="cls-1" x1="17.62" y1="11.88" x2="19.66" y2="11.88"/>
    <line class="cls-1" x1="11.86" y1="13.51" x2="19.66" y2="13.51"/>
  </g>
  <g>
    <path class="cls-2" d="M6.89,9.31c.06.02.12.02.18.03.56.15.91.51,1.03,1.07.15.68-.27,1.38-.94,1.58-.84.25-1.6-.29-1.75-1.04-.16-.8.36-1.42.97-1.59.08-.02.15-.03.23-.05.01,0,.03,0,.04,0,0,0,.01,0,.02,0h.16s.01,0,.02,0h.03Z"/>
    <path class="cls-2" d="M6.8,15.45c-.49,0-.98,0-1.46,0-.25,0-.48-.05-.68-.2-.24-.17-.38-.4-.4-.69-.04-.51.02-1,.21-1.48.11-.29.28-.53.57-.68.17-.09.36-.13.56-.14.07,0,.13.03.18.06.09.06.18.12.27.17.51.31,1.02.31,1.54,0,.07-.04.14-.09.21-.14.12-.09.26-.11.4-.09.4.06.68.27.87.62.17.31.24.65.28,1,.02.18.03.36.02.54-.01.54-.38.94-.92,1-.07,0-.14.01-.21.01-.48,0-.96,0-1.43,0Z"/>
  </g>
  <circle class="cls-3" cx="3.5" cy="7.05" r=".5"/>
</svg>