<?xml version="1.0" encoding="UTF-8"?>
<svg id="Layer_1" xmlns="http://www.w3.org/2000/svg" xmlns:xlink="http://www.w3.org/1999/xlink" viewBox="0 0 400 306">
  <defs>
    <style>
      .cls-1 {
        fill: none;
      }

      .cls-2 {
        fill: #03172d;
      }

      .cls-3 {
        fill: #ff735d;
      }

      .cls-4 {
        fill: #ffdcad;
      }

      .cls-5 {
        fill: #1a2e35;
      }

      .cls-6 {
        fill: #ffc19d;
      }

      .cls-7 {
        fill: #fed250;
      }

      .cls-8 {
        fill: #fff;
      }

      .cls-9 {
        fill: #7c4235;
      }

      .cls-10 {
        clip-path: url(#clippath);
      }

      .cls-11 {
        fill: #222;
      }
    </style>
    <clipPath id="clippath">
      <rect class="cls-1" x="145.57" y="33" width="207.39" height="224.25"/>
    </clipPath>
  </defs>
  <path class="cls-1" d="M38.37,175.53c-.05.25-.11.42-.19.5.22-.12.43-.28.64-.48l-.45-.02ZM31.29,175.61c-.07-.13-.13-.26-.19-.38l-1-.04h-.15c.08.17.17.36.26.56.04.01.08.01.12.02.38.07.75.13,1.12.19,1.16.17,2.25.31,3.22.39-1.23-.16-2.48-.47-3.38-.74ZM28.02,171.99c.04.07.08.14.12.22l.82.04c-.29-.11-.62-.22-.94-.26ZM20.02,255.06c-.07.02-.15.03-.24.04.1.34.2.69.32,1.03.13-.21.28-.43.42-.64-.2-.3-.36-.46-.5-.43ZM42.46,118.56c.89-.31,1.57-1.11,1.7-2.13-.58.72-1.12,1.4-1.7,2.13ZM38.82,175.55l-.45-.02c-.05.25-.11.42-.19.5.25-.11.48-.27.65-.48h0ZM31.1,175.23l-1-.04h-.15s.08.02.17.05c.22.08.64.22,1.17.37-.07-.13-.13-.26-.19-.38ZM28.02,171.99c.04.07.08.14.12.22l.82.04c-.29-.11-.62-.22-.94-.26ZM95.29,261.22c-2.64,1.91-5.72,2.79-8.95,3.14.1.19.21.38.31.58,3.17-.47,6.15-1.53,8.68-3.64,0-.03-.03-.05-.04-.08ZM74.7,264.19c-.5-.04-1-.07-1.49-.1-.92-.05-1.86-.08-2.81-.08.31.23.61.48.9.75.38,0,.76.03,1.13.05.99.06,1.99.13,3.01.2-.24-.28-.48-.55-.74-.82ZM29.21,223.86c0,.07,0,.14-.02.22-.05.66-.1,1.29-.16,1.92.15-1.13.27-2.31.35-3.54-.04.24-.09.76-.17,1.4ZM20.02,255.06c-.07.02-.15.03-.24.04.1.34.2.69.32,1.03.13-.21.28-.43.42-.64-.2-.3-.36-.46-.5-.43ZM26.55,154.71c.9-.63,1.82-1.05,2.72-1.33-1.04.24-1.99.65-2.72,1.33ZM74.7,264.19c-.5-.04-1-.07-1.49-.1-.92-.05-1.86-.08-2.81-.08.31.23.61.48.9.75.38,0,.76.03,1.13.05.99.06,1.99.13,3.01.2-.24-.28-.48-.55-.74-.82ZM74.7,264.19c-.5-.04-1-.07-1.49-.1-.92-.05-1.86-.08-2.81-.08.31.23.61.48.9.75.38,0,.76.03,1.13.05.99.06,1.99.13,3.01.2-.24-.28-.48-.55-.74-.82ZM31.29,175.61c-.07-.13-.13-.26-.19-.38l-1-.04h-.15c.08.17.17.36.26.56.04.01.08.01.12.02.38.07.75.13,1.12.19-.06-.12-.11-.24-.16-.35ZM29.21,223.86c0,.07,0,.14-.02.22-.05.66-.1,1.29-.16,1.92.15-1.13.27-2.31.35-3.54-.04.24-.09.76-.17,1.4ZM28.02,171.99c.04.07.08.14.12.22l.82.04c-.29-.11-.62-.22-.94-.26ZM20.02,255.06c-.07.02-.15.03-.24.04.1.34.2.69.32,1.03.13-.21.28-.43.42-.64-.2-.3-.36-.46-.5-.43ZM29.21,223.86c0,.07,0,.14-.02.22-.05.66-.1,1.29-.16,1.92.15-1.13.27-2.31.35-3.54-.04.24-.09.76-.17,1.4ZM30.12,175.24s0-.03-.02-.05h-.15c.08.17.17.36.26.56.04.01.08.01.12.02-.07-.19-.14-.36-.21-.53ZM29.21,223.86c0,.07,0,.14-.02.22-.05.66-.1,1.29-.16,1.92.15-1.13.27-2.31.35-3.54-.04.24-.09.76-.17,1.4ZM20.02,255.06c-.07.02-.15.03-.24.04.1.34.2.69.32,1.03.13-.21.28-.43.42-.64-.2-.3-.36-.46-.5-.43Z"/>
  <path class="cls-11" d="M37.36,153.84c-.1-.02-.21-.03-.31-.03-.1-.04-.22-.09-.35-.13.27.06.5.12.66.16Z"/>
  <g>
    <path class="cls-11" d="M353.3,288.73H29.14c-3.98,0-7.2-3.22-7.2-7.2V93.75c0-3.98,10.03-70.93,14-70.93v63.73h317.35c3.98,0,7.2,3.22,7.2,7.2l12.32,176.94c0,3.98-15.55,18.04-19.52,18.04Z"/>
    <rect class="cls-7" x="34.59" y="19.66" width="338.56" height="256.51" rx="7.2" ry="7.2"/>
    <g>
      <g>
        <g class="cls-10">
          <g>
            <path class="cls-5" d="M191.96,121.28c-9.97,7.07-17.42-13.62-15.21-24.78.93-4.62,3.53-8.46,6.82-10.41,6.6-4.28,12.74,3.14,14.38,12.39,1.99,8.47-.45,18.63-5.7,22.57l-.29.22Z"/>
            <path class="cls-5" d="M264.49,87.43c5.09-.37,9.62-4.55,10.32-9.51.21-1.49.08-3.08-.71-4.38-.79-1.29-2.34-2.2-3.85-1.95,1.7-1.78,2.75-4.2,2.6-6.64-.15-2.43-1.58-4.81-3.8-5.9-2.22-1.09-5.17-.72-6.88,1.04-.52-2.58-2.69-4.77-5.31-5.36l-10.16,4.7,17.79,27.99Z"/>
            <g>
              <path class="cls-6" d="M265.9,169.64l1.22,5.61,5.41,24.89-19.78,12.23-34.34-17.15-25.97-83.68c-7.25-22.3-.04-45.02,22.91-51.52l2.14-.47c21.71-4.81,43.55,7.52,50.18,28.34,6.17,19.37,12.74,40.84,15.04,51.44,4.79,21.98-16.8,30.32-16.8,30.32Z"/>
              <g>
                <path class="cls-2" d="M252.79,213.49l-35.23-17.6-.13-.4-25.97-83.68c-4.21-12.94-3.52-26.06,1.88-35.97,4.48-8.22,11.99-14.02,21.71-16.77l2.2-.48c22.06-4.89,44.62,7.85,51.36,29,8.07,25.36,13.14,42.69,15.06,51.53,4.37,20.09-12.72,29.28-16.63,31.1l6.61,30.39-20.86,12.89ZM219.23,194.53l33.46,16.71,18.71-11.56-6.66-30.64.79-.31c.85-.33,20.74-8.31,16.19-29.2-1.91-8.77-6.96-26.05-15.01-51.35-6.42-20.18-27.97-32.34-49-27.67l-2.15.47c-9.13,2.59-16.22,8.06-20.44,15.8-5.15,9.45-5.78,22.01-1.73,34.46l25.85,83.3Z"/>
                <path class="cls-11" d="M252.82,214.07l-.25-.12-35.42-17.69-.19-.6-25.97-83.69c-4.25-13.07-3.55-26.32,1.92-36.36,4.54-8.34,12.16-14.23,22.01-17.02l2.23-.49c22.3-4.95,45.13,7.94,51.94,29.34,8.08,25.37,13.15,42.72,15.07,51.57,4.34,19.96-12.25,29.41-16.55,31.49l6.6,30.35-21.39,13.22ZM217.98,195.54l34.79,17.38,20.32-12.56-6.62-30.44.36-.17c3.49-1.62,20.67-10.71,16.36-30.54-1.92-8.82-6.98-26.14-15.05-51.48-6.66-20.91-28.96-33.51-50.77-28.67l-2.2.48c-9.56,2.71-16.96,8.43-21.38,16.53-5.34,9.8-6.01,22.76-1.84,35.58l26.04,83.89ZM252.71,211.81l-.25-.12-33.65-16.81-.06-.2-25.85-83.3c-4.09-12.57-3.44-25.28,1.77-34.85,4.29-7.86,11.46-13.41,20.74-16.04l2.17-.48c21.31-4.72,43.09,7.58,49.59,28.01,8.06,25.31,13.11,42.6,15.03,51.4,4.64,21.29-15.63,29.44-16.5,29.78l-.39.15,6.64,30.57-19.25,11.9ZM219.65,194.18l33.02,16.49,18.17-11.23-6.68-30.71,1.19-.46c.83-.32,20.34-8.17,15.88-28.63-1.91-8.77-6.95-26.03-15-51.31-6.35-19.95-27.62-31.95-48.42-27.34l-2.15.47c-8.99,2.55-15.95,7.93-20.11,15.55-5.08,9.33-5.7,21.75-1.7,34.07l25.79,83.1Z"/>
              </g>
            </g>
            <path class="cls-5" d="M262.65,111.28c.44,1.64-.61,3.36-2.35,3.84-1.73.48-3.5-.45-3.94-2.09-.44-1.64.61-3.36,2.35-3.84,1.74-.48,3.5.45,3.94,2.09Z"/>
            <path class="cls-5" d="M265.33,99.66c-.3.5-3.12-.72-6.56.05-3.44.72-5.56,3.01-6.03,2.68-.23-.14,0-.97.92-1.99.9-1.02,2.57-2.19,4.71-2.65,2.14-.46,4.12-.09,5.34.47,1.24.56,1.77,1.22,1.61,1.45Z"/>
            <path class="cls-5" d="M232.7,118.95c.44,1.64-.61,3.36-2.35,3.84-1.73.48-3.5-.45-3.94-2.09-.44-1.64.61-3.36,2.35-3.84,1.74-.48,3.5.45,3.94,2.09Z"/>
            <path class="cls-5" d="M231.71,107.77c-.3.5-3.13-.72-6.56.05-3.44.72-5.56,3.01-6.03,2.68-.22-.14,0-.97.93-1.99.9-1.02,2.57-2.19,4.71-2.65,2.14-.46,4.12-.09,5.34.47,1.24.56,1.77,1.22,1.61,1.44Z"/>
            <path class="cls-5" d="M249.93,129.98c-.06-.19,1.99-1.02,5.35-2.22.86-.28,1.65-.64,1.66-1.26.06-.67-.52-1.51-1.17-2.42-1.3-1.9-2.67-3.89-4.1-5.97-5.75-8.52-10.13-15.61-9.77-15.83.35-.22,5.3,6.5,11.05,15.02,1.4,2.11,2.73,4.11,4,6.03.56.9,1.38,1.89,1.23,3.27-.09.69-.62,1.3-1.15,1.58-.52.29-1.01.41-1.44.53-3.44.95-5.6,1.45-5.65,1.26Z"/>
            <path class="cls-5" d="M263.19,78.31s-9.06-12.41-16.55-14.12c-9.07-2.07-10.56,7.5-18.83,7.1-8.28-.41-16.94-2.4-23.54,5.26-7.22,8.39-2.1,12.01-.39,21.85,6.91,39.89,2.13,52.66-4.24,34.56-.7-1.98-6.83-2.32-9.66-10.73-3.68-10.9-7.23-24.33-6.52-32.8.6-7.14,3.42-12.6,9.2-19.22,9.13-10.44,24.16-13.96,34.63-15.21,10.47-1.26,32.87,5.92,35.9,23.3Z"/>
            <path class="cls-6" d="M200.93,132.05c-.92-3.35-4.51-5.36-7.87-4.28-4.08,1.31-8.18,4.66-5.96,13.04,3.94,14.87,18.36,7.92,18.27,7.49-.06-.29-2.73-10.04-4.44-16.25Z"/>
            <path class="cls-9" d="M200.59,143.55c-.08-.03-.22.25-.61.56-.38.31-1.1.63-1.97.54-1.76-.17-3.77-2.32-4.55-4.98-.4-1.34-.45-2.71-.24-3.9.17-1.21.69-2.15,1.46-2.49.75-.39,1.45-.06,1.75.31.31.36.3.69.38.69.05.03.26-.33-.03-.92-.14-.28-.41-.58-.84-.78-.44-.2-1.02-.21-1.56,0-1.15.38-1.92,1.7-2.15,3.01-.29,1.33-.26,2.87.18,4.38.89,2.97,3.2,5.38,5.56,5.44,1.14,0,1.95-.54,2.31-1.01.37-.49.36-.84.3-.85Z"/>
            <path class="cls-3" d="M241.64,80.18s.07,0,.11-.01c.09-.01.19-.03.28-.04l-.39.06Z"/>
            <path class="cls-5" d="M223.29,84.83c-.66.12-1.66-2.3-2.22-5.39-.56-3.09-.48-5.69.19-5.81.66-.12,1.66,2.3,2.22,5.39.56,3.09.48,5.69-.19,5.81Z"/>
            <path class="cls-5" d="M232.33,84.81c-.56.37-2.48-1.44-4.3-4.05-1.82-2.61-2.84-5.03-2.28-5.4.56-.37,2.48,1.44,4.3,4.05,1.81,2.61,2.83,5.03,2.28,5.4Z"/>
            <path class="cls-5" d="M181.02,104.77c-7.04,2.83-3.84-15.95-3.09-19.65,1.09-5.42,2.86-10.71,5.5-15.46,10.41-18.85,27.79-23.4,48.74-23.25,8.13-.02,18.47-.01,26.61-1.1,7.21-.96,11.84-11.35,16.03-7.25,3.25,3.19,9.69,6.15,11.76,10.21,5.26,10.1,1.78,22.93-6.69,30.22-7.33,6.64-17.71,8.1-27.26,9.59-9.53,1.32-22.42,2.17-32.66,3.18-7.71.75-14.62,1.06-21.81,3.26-2.46.79-4.92,1.79-7.1,3.19-3.26,2.09-6.45,5.46-9.9,7.01l-.1.04Z"/>
          </g>
          <path class="cls-5" d="M239.6,138.38c.28-.5,3.33.64,7.25,1.02,3.91.44,7.15-.04,7.31.5.07.25-.05,1.38-1.41,1.74-1.36.37-4.16,1.25-6.31,1.02-2.15-.23-4.28-1.3-5.52-1.94-1.25-.64-1.43-2.13-1.31-2.36Z"/>
          <path class="cls-11" d="M146.86,268.99c-.53-1.29,3.19-62.57,11-70.64,7.8-8.07,57.46-14.13,57.46-14.13,0,0,12.79,14.23,41.6,14.23,10.2,0,13.01-14.23,13.01-14.23,0,0,38.37,4.21,57.2,13.53,4.33,2.14,7.73,5.73,9.67,10.09,6.37,14.33,17.93,58.26,16.77,59.36-1.42,1.35-36.44,5.14-37.51,5.48-1.06.34-1.36,98.56-1.36,98.56h-136.53c-1.06,0-3.64-96.2-5.41-95.87-1.77.34-20.93,5.72-25.89-6.39Z"/>
          <g>
            <path class="cls-6" d="M159.82,320.41c-.11-.39-1.47-4.88-1.29-7.22.18-2.35,4.42-10.47,4.79-10.83s22.11-5.6,24.87-5.06c2.76.54,17.87,20.77,17.87,20.77,0,0,44.12,4.63,67.34,2.64,23.22-1.99,38.96-6.93,39.33-6.93s3.32-41.09,3.32-41.09c0,0,37.72-5.53,37.51-5.48-.22.05,7.06,70.11-10.44,80.76-17.5,10.65-98.18,3.86-135.22-4.81,0,0-9.77-1.44-13.45-2.89-3.69-1.44-12.34-9.21-12.34-9.21,0,0,2.01,5.86-2.4,5.55-4.41-.31-12.34-7.9-13.99-10.61-1.66-2.71-.42-3.87-.42-3.87.08-.16-1.22-3.65-1.22-3.47s-3.66,3.8-4.25,1.74Z"/>
            <path class="cls-2" d="M304.28,354.36c-32.2,0-74.39-5.04-96.61-10.24-.32-.04-9.84-1.46-13.59-2.93-2.68-1.05-7.67-5.11-10.52-7.54.01.97-.17,2-.78,2.78-.48.6-1.41,1.3-3.15,1.17-4.99-.35-13.18-8.47-14.78-11.08-1.44-2.36-1.04-3.86-.63-4.58-.11-.36-.31-.94-.51-1.48-.93.77-2.11,1.46-2.82,1.55-.99.13-1.76-.38-2.04-1.33l.96-.27-.99.19c-.56-1.9-1.46-5.39-1.3-7.49.21-2.6,4.52-10.9,5.08-11.45.9-.88,23.12-5.86,25.78-5.33,2.85.56,14.34,15.61,18.22,20.8,4.66.47,45.09,4.44,66.7,2.6,9.15-.78,23.21-2.57,38.22-6.66.13-.03.24-.07.34-.09.48-3.75,2.13-25.65,3.19-40.36l.06-.78,32.44-4.75c2.81-.41,4.46-.65,5.44-.73.09-.04.2-.07.32-.1l.02.08c1.09-.04,1.11.18,1.21.68l.19.91-.13.03c.02.3.05.67.08,1.13,1.96,26.07,3.14,71.09-11.03,79.72-6.55,3.98-21.41,5.55-39.37,5.55ZM179.95,327.8l2.84,2.55c.08.08,8.57,7.66,12.04,9.03,3.53,1.38,13.13,2.81,13.23,2.83,38.87,9.09,117.76,15.16,134.54,4.94,9.7-5.9,13.37-34.3,10.09-77.91-.03-.34-.05-.64-.06-.9-4.74.68-24.23,3.54-35.62,5.21q-2.96,41.21-4.26,41.22c.05,0-.23.08-.67.21-15.16,4.12-29.35,5.93-38.58,6.72-23.05,1.98-67.09-2.6-67.53-2.64l-.44-.05-.26-.35c-7.18-9.61-15.61-19.86-17.28-20.39-2.22-.45-21.46,4.02-24.02,4.9-.67,1.09-4.28,8.18-4.43,10.11-.1,1.3.34,3.77,1.23,6.77.58-.17,1.8-1.14,2.32-1.69v-.34l1.27-.5.47.49s1.81,3.7,1.39,4.57l-.21.29c-.18.22-.35,1.12.59,2.65,1.65,2.69,9.37,9.86,13.21,10.13,1.02.08,1.32-.3,1.42-.42.67-.84.26-2.95-.04-3.84l-1.22-3.58ZM160.8,320.19h0s0,0,0,0Z"/>
          </g>
          <g>
            <g>
              <path class="cls-6" d="M347.09,309.1c.11-.39,1.47-4.88,1.29-7.22-.18-2.35-4.42-10.47-4.79-10.83-.37-.36-22.11-5.6-24.87-5.06-2.76.54-17.87,20.77-17.87,20.77,0,0-44.12,4.63-67.34,2.64-23.22-1.99-38.96-6.93-39.33-6.93s-3.32-41.09-3.32-41.09c0,0-37.72-5.53-37.51-5.48.22.05-7.06,70.11,10.44,80.76,17.5,10.65,98.18,3.86,135.22-4.81,0,0,9.77-1.44,13.45-2.89,3.69-1.44,12.34-9.21,12.34-9.21,0,0-2.01,5.86,2.4,5.55,4.41-.31,12.34-7.9,13.99-10.61,1.66-2.71.42-3.87.42-3.87-.08-.16,1.22-3.65,1.22-3.47,0,.18,3.66,3.8,4.25,1.74Z"/>
              <path class="cls-2" d="M163.26,337.49c-14.17-8.62-12.99-53.65-11.03-79.72.03-.45.06-.83.08-1.13l-.13-.03.19-.91c.1-.49.12-.71,1.21-.68l.02-.08c.13.03.23.06.32.1.98.08,2.63.32,5.44.73l32.44,4.75.06.78c1.06,14.71,2.71,36.61,3.19,40.36.1.03.21.06.34.09,15.01,4.08,29.07,5.87,38.22,6.66,21.62,1.84,62.04-2.12,66.7-2.6,3.89-5.18,15.37-20.24,18.22-20.8,2.66-.54,24.88,4.45,25.78,5.33.56.55,4.87,8.85,5.08,11.45.16,2.1-.75,5.59-1.3,7.49l-.99-.19.96.27c-.28.95-1.04,1.45-2.04,1.33-.71-.1-1.89-.79-2.82-1.55-.2.54-.4,1.12-.51,1.48.41.72.81,2.22-.63,4.58-1.6,2.62-9.8,10.73-14.78,11.08-1.74.12-2.67-.57-3.15-1.17-.62-.78-.79-1.81-.78-2.78-2.85,2.43-7.84,6.49-10.52,7.54-3.75,1.47-13.27,2.89-13.59,2.93-22.22,5.2-64.4,10.24-96.61,10.24-17.96,0-32.83-1.57-39.37-5.55ZM325.75,320.06c-.3.89-.71,3-.04,3.84.1.12.4.5,1.42.42,3.84-.27,11.56-7.44,13.21-10.13.94-1.53.77-2.43.59-2.65l-.21-.29c-.42-.86,1.36-4.54,1.39-4.57l.47-.49,1.27.5v.34c.52.56,1.73,1.52,2.32,1.69.88-3,1.33-5.47,1.23-6.77-.15-1.93-3.76-9.02-4.43-10.11-2.56-.88-21.8-5.35-24.02-4.9-1.67.53-10.1,10.78-17.28,20.39l-.26.35-.44.05c-.44.05-44.48,4.62-67.53,2.64-9.23-.79-23.42-2.6-38.58-6.72-.44-.12-.72-.2-.67-.21q-1.29,0-4.26-41.22c-11.4-1.67-30.89-4.53-35.62-5.21-.02.26-.04.56-.06.9-3.28,43.61.4,72.01,10.09,77.91,16.78,10.21,95.67,4.15,134.54-4.94.1-.02,9.69-1.45,13.23-2.83,3.47-1.36,11.96-8.95,12.04-9.03l2.84-2.55-1.22,3.58ZM346.11,308.88h0s0,0,0,0Z"/>
            </g>
            <path class="cls-9" d="M342.63,308.24s-.13-.8-.71-1.96c-.58-1.16-1.62-2.66-3.13-3.98-1.51-1.31-3.16-2.15-4.4-2.58-1.24-.43-2.06-.51-2.07-.46-.02.08.76.28,1.94.78,1.18.5,2.73,1.35,4.2,2.62,1.46,1.28,2.51,2.69,3.15,3.78.64,1.09.94,1.82,1.01,1.8Z"/>
            <path class="cls-9" d="M330.78,303.92c-.05.15,2.86.98,5.92,2.99,3.08,1.98,5.01,4.27,5.12,4.17.05-.04-.37-.66-1.2-1.54-.83-.88-2.09-2.01-3.65-3.03-1.57-1.01-3.12-1.71-4.27-2.11-1.16-.4-1.9-.54-1.92-.48Z"/>
            <path class="cls-9" d="M337.86,295.21c-.04.06.67.59,1.79,1.48,1.09.89,2.65,2.18,3.56,4.1.45.95.67,1.95.62,2.85-.04.9-.29,1.7-.54,2.36-.52,1.31-.94,2.09-.86,2.13.05.02.57-.69,1.18-2,.3-.66.6-1.48.67-2.46.08-.98-.15-2.06-.63-3.07-.98-2.05-2.64-3.34-3.8-4.17-1.19-.83-1.97-1.26-2-1.21Z"/>
            <path class="cls-9" d="M173.64,313.19c.08.05.78-1.12,2.24-2.75.72-.82,1.67-1.72,2.78-2.63,1.14-.89,2.45-1.79,3.93-2.58,1.49-.77,2.98-1.36,4.37-1.79,1.4-.41,2.68-.69,3.78-.83,2.19-.3,3.57-.23,3.57-.32,0-.03-.34-.07-.97-.1-.31-.02-.7-.03-1.14,0-.44.02-.95.02-1.51.09-1.12.1-2.44.35-3.87.74-1.42.42-2.95,1-4.47,1.79-1.51.81-2.85,1.74-3.99,2.67-1.12.95-2.06,1.89-2.76,2.75-.37.41-.65.83-.91,1.18-.27.35-.47.67-.62.94-.32.53-.48.83-.45.85Z"/>
          </g>
        </g>
        <g>
          <g>
            <rect class="cls-8" x="58.61" y="170.7" width="145.71" height="87.26" rx="5.98" ry="5.98"/>
            <path class="cls-11" d="M198.34,258.96H64.59c-3.85,0-6.98-3.13-6.98-6.98v-75.3c0-3.85,3.13-6.98,6.98-6.98h133.75c3.85,0,6.98,3.13,6.98,6.98v75.3c0,3.85-3.13,6.98-6.98,6.98ZM64.59,171.7c-2.74,0-4.98,2.23-4.98,4.98v75.3c0,2.75,2.23,4.98,4.98,4.98h133.75c2.75,0,4.98-2.23,4.98-4.98v-75.3c0-2.75-2.23-4.98-4.98-4.98H64.59Z"/>
          </g>
          <rect class="cls-7" x="155.11" y="198.53" width="39.97" height="49.26" rx="6.8" ry="6.8"/>
          <rect class="cls-8" x="62.34" y="178.08" width="15.91" height="5.1"/>
          <rect class="cls-7" x="72.43" y="180.63" width="118.79" height="5.1"/>
          <g>
            <path class="cls-8" d="M190.08,236.6v4.46c0,.49-.38.89-.84.89h-26.4c-.46,0-.84-.4-.84-.89v-4.46c0-6.1,3.54-11.36,8.56-13.62.13-.06.15-.24.03-.33-2.57-1.89-4.21-5.09-4.06-8.68.2-5.08,4.08-9.26,8.89-9.58,5.54-.37,10.15,4.26,10.15,10.02,0,3.43-1.63,6.46-4.12,8.27-.1.07-.08.22.03.27,1.69.75,3.21,1.84,4.49,3.19,2.54,2.68,4.12,6.39,4.12,10.46Z"/>
            <path class="cls-11" d="M189.24,242.95h-26.4c-1.01,0-1.84-.85-1.84-1.89v-4.46c0-5.88,3.11-11.23,8.02-13.96-2.33-2.19-3.62-5.36-3.49-8.7.22-5.55,4.54-10.18,9.82-10.54,2.85-.19,5.57.79,7.69,2.77,2.24,2.09,3.52,5.1,3.52,8.24s-1.29,6.14-3.5,8.22c1.33.74,2.54,1.68,3.62,2.82,2.84,2.99,4.4,6.95,4.4,11.14v4.46c0,1.04-.83,1.89-1.84,1.89ZM163,240.95h26.08v-4.35c0-3.68-1.37-7.15-3.85-9.77-1.21-1.27-2.61-2.27-4.17-2.96-.38-.17-.64-.53-.68-.94-.04-.41.14-.82.48-1.06,2.32-1.69,3.7-4.48,3.7-7.46,0-2.59-1.05-5.06-2.89-6.78-1.71-1.6-3.89-2.39-6.19-2.24-4.28.29-7.77,4.08-7.96,8.62-.13,3.12,1.24,6.05,3.66,7.83.34.25.52.67.48,1.09-.04.42-.31.78-.69.96-4.84,2.18-7.97,7.17-7.97,12.71v4.35ZM182.04,223.49s0,0,0,0c0,0,0,0,0,0Z"/>
          </g>
          <g>
            <rect class="cls-7" x="66.5" y="200.81" width="70.16" height="6.64"/>
            <rect class="cls-7" x="66.5" y="211.84" width="70.16" height="6.64"/>
            <rect class="cls-7" x="66.5" y="222.64" width="70.16" height="6.64"/>
            <rect class="cls-7" x="66.5" y="233.45" width="70.16" height="6.64"/>
            <rect class="cls-7" x="66.5" y="244.47" width="70.16" height="6.64"/>
          </g>
        </g>
        <g>
          <g>
            <path class="cls-4" d="M64.05,244.4c3.14.51,6.87.85,10.08.9,3.31.95,5.95,1.97,6.68,2.59.98.85,1.41,2.08,1.15,3.31-.29,1.37-1.38,2.46-3,2.99-2.13.7-8.32.54-13.8-.34-3.1-.5-5.37-1.16-6.07-1.77-1.3-1.13-2.21-3.72-2.07-5.92.08-1.29.52-2.26,1.22-2.73.14-.09.31-.17.52-.23,1.57.52,3.58.92,5.29,1.2h0Z"/>
            <path class="cls-11" d="M74.38,255.62c-2.77,0-6.17-.27-9.39-.79-2.39-.38-5.46-1.04-6.56-2-1.53-1.33-2.57-4.22-2.42-6.73.1-1.6.69-2.85,1.67-3.5.21-.14.46-.26.78-.36l.31-.1.31.1c1.25.42,3.02.82,5.13,1.16,3.16.51,6.87.84,9.93.88l.26.04c1.72.49,5.85,1.75,7.05,2.8,1.25,1.09,1.81,2.68,1.48,4.27-.36,1.73-1.7,3.1-3.67,3.74-1,.33-2.75.49-4.88.49ZM58.79,244.26c-.44.3-.73,1.01-.79,1.97-.12,1.88.66,4.17,1.73,5.1.31.27,1.88.94,5.57,1.54,5.8.94,11.57.95,13.33.38,1.27-.42,2.12-1.24,2.33-2.25.18-.87-.13-1.74-.83-2.35-.4-.35-2.37-1.25-6.17-2.35-3.12-.05-6.88-.39-10.09-.91h0c-2.06-.33-3.77-.71-5.09-1.12Z"/>
          </g>
          <g>
            <path class="cls-4" d="M58.2,231.6c1.75.72,4.38,1.26,6.55,1.61h0c3.02.49,6.53.83,9.7.94,3.89,1.11,7.02,2.3,7.87,3.04,1.13.98,1.63,2.42,1.34,3.84-.33,1.59-1.6,2.85-3.48,3.47-2.74.89-10.33.5-15.79-.39-3.6-.58-6.14-1.32-6.96-2.03-1.5-1.3-2.55-4.29-2.39-6.81.09-1.49.6-2.62,1.43-3.17.36-.24.95-.4,1.73-.49Z"/>
            <path class="cls-11" d="M75.13,246c-3.6,0-7.91-.42-10.9-.9-2.71-.44-6.21-1.19-7.46-2.27-1.74-1.5-2.91-4.78-2.73-7.62.11-1.81.78-3.21,1.87-3.94.5-.33,1.21-.55,2.18-.65l.25-.03.24.1c1.36.56,3.54,1.09,6.32,1.54,3.02.49,6.51.82,9.58.93l.24.04c1.57.45,6.82,2,8.25,3.25,1.41,1.22,2.03,3.01,1.66,4.8-.41,1.95-1.92,3.49-4.14,4.21-1.22.4-3.16.56-5.36.56ZM58.07,232.63c-.7.1-.97.25-1.04.29-.56.37-.92,1.25-.99,2.41-.14,2.21.78,4.89,2.05,5.99.5.43,2.49,1.16,6.47,1.8,5.37.87,12.81,1.24,15.32.42,1.53-.5,2.55-1.49,2.81-2.72.22-1.06-.16-2.14-1.01-2.88-.58-.5-3.13-1.59-7.38-2.8-3.12-.11-6.65-.45-9.71-.95-2.81-.45-5-.98-6.52-1.57Z"/>
          </g>
          <g>
            <path class="cls-4" d="M58.89,219.32c1.44,1.16,5.29,1.93,7.51,2.28,3.24.52,7.11.86,10.38.85,3.66,1.1,6.52,2.23,7.36,2.95,1.23,1.07,1.77,2.62,1.45,4.17-.36,1.73-1.73,3.1-3.77,3.76-2.95.96-11.13.54-17.02-.41-3.89-.63-6.63-1.43-7.52-2.2-1.62-1.4-2.76-4.64-2.58-7.36.1-1.62.65-2.84,1.55-3.44.51-.34,1.41-.54,2.64-.6Z"/>
            <path class="cls-11" d="M76.27,234.88c-3.61,0-7.99-.38-11.64-.97-2.92-.47-6.68-1.27-8.01-2.43-1.86-1.61-3.12-5.13-2.93-8.18.12-1.93.83-3.43,1.99-4.21.67-.45,1.7-.7,3.15-.77l.38-.02.29.24c.91.73,3.54,1.51,7.04,2.08,3.27.53,7.08.84,10.2.84h.01l.29.04c1.88.56,6.39,1.99,7.72,3.15,1.51,1.31,2.17,3.22,1.78,5.12-.44,2.09-2.05,3.73-4.44,4.51-1.27.42-3.39.6-5.86.6ZM58.59,220.34c-1.19.09-1.64.31-1.79.41-.63.42-1.03,1.4-1.11,2.68-.15,2.41.85,5.34,2.24,6.54.55.47,2.71,1.27,7.02,1.97,5.8.94,13.83,1.34,16.55.45,1.68-.55,2.81-1.65,3.1-3.01.25-1.18-.18-2.38-1.13-3.21-.57-.49-2.91-1.52-6.85-2.71-3.2,0-7.07-.33-10.39-.87-2.6-.42-5.96-1.14-7.64-2.25Z"/>
          </g>
          <g>
            <path class="cls-4" d="M84.49,213.23c1.15,1.06,1.65,2.63,1.32,4.2-.36,1.71-1.65,3.08-3.54,3.75-2.73.97-10.3.62-15.75-.26-3.65-.59-6.33-1.39-7.15-2.15-1.49-1.38-2.53-4.58-2.36-7.3.1-1.64.63-2.89,1.49-3.51,1.11-.8,4.18-.85,8.65-.13,7.39,1.19,15.86,4.01,17.36,5.39Z"/>
            <path class="cls-11" d="M76.81,222.76c-3.51,0-7.59-.39-10.46-.86-2.29-.37-6.33-1.17-7.67-2.41-1.72-1.58-2.87-5.06-2.68-8.09.12-1.95.79-3.46,1.9-4.26,1.37-.99,4.53-1.09,9.39-.3,7.06,1.14,16.08,3.99,17.88,5.64,1.42,1.31,2.02,3.23,1.62,5.14-.43,2.06-1.96,3.7-4.19,4.49-1.3.46-3.41.64-5.79.64ZM61.81,208.32c-1.97,0-2.6.35-2.74.45-.6.43-.99,1.44-1.07,2.76-.15,2.41.77,5.32,2.04,6.5.41.37,2.26,1.2,6.63,1.9,5.35.86,12.76,1.2,15.26.3,1.56-.55,2.61-1.65,2.9-3.02.26-1.22-.12-2.43-1.01-3.25h0c-1.23-1.13-9.44-3.95-16.84-5.14-2.32-.38-3.98-.5-5.16-.5Z"/>
          </g>
        </g>
      </g>
      <g>
        <path class="cls-5" d="M121.05,271.11H49.84c-3.55,0-6.44-2.84-6.44-6.33v-68.44c0-.55.45-1,1-1s1,.45,1,1v68.44c0,2.39,1.99,4.33,4.44,4.33h71.21c.55,0,1,.45,1,1s-.45,1-1,1Z"/>
        <path class="cls-5" d="M357.87,271.11h-70.98c-.55,0-1-.45-1-1s.45-1,1-1h70.98c2.58,0,4.68-2.05,4.68-4.57v-68.2c0-.55.45-1,1-1s1,.45,1,1v68.2c0,3.62-3,6.57-6.68,6.57Z"/>
        <path class="cls-5" d="M363.55,103.39c-.55,0-1-.45-1-1V35.94c0-3.48-2.9-6.32-6.46-6.32h-69.19c-.55,0-1-.45-1-1s.45-1,1-1h69.19c4.67,0,8.46,3.73,8.46,8.32v66.46c0,.55-.45,1-1,1Z"/>
        <path class="cls-5" d="M44.4,103.39c-.55,0-1-.45-1-1V35.69c0-4.45,3.68-8.07,8.21-8.07h69.45c.55,0,1,.45,1,1s-.45,1-1,1H51.61c-3.42,0-6.21,2.72-6.21,6.07v66.7c0,.55-.45,1-1,1Z"/>
      </g>
    </g>
  </g>
</svg>