<?xml version="1.0" encoding="UTF-8"?>
<svg id="Icons_on_Landing_page" xmlns="http://www.w3.org/2000/svg" viewBox="0 0 24 24">
  <defs>
    <style>
      .cls-1 {
        fill: none;
        stroke: #222;
        stroke-miterlimit: 10;
        stroke-width: .75px;
      }
    </style>
  </defs>
  <path class="cls-1" d="M20.69,11.02c-.06-.53-.48-.94-1.01-.98l-1.24-.1c-.25-.02-.46-.17-.55-.4-.1-.23-.06-.48.1-.68l.79-.96c.34-.41.34-.99,0-1.41-.4-.49-.85-.94-1.34-1.33-.42-.34-1-.33-1.41.02l-.95.8c-.19.16-.44.2-.67.11-.23-.1-.38-.3-.41-.55l-.12-1.24c-.05-.53-.46-.94-.99-1-.63-.07-1.26-.06-1.89,0-.53.06-.94.48-.98,1.01l-.1,1.24c-.02.25-.17.46-.4.55-.23.1-.48.06-.68-.1l-.96-.79c-.41-.34-.99-.34-1.41,0-.49.4-.94.85-1.33,1.34-.34.42-.33,1,.02,1.41l.8.95c.16.19.2.44.11.67-.1.23-.3.38-.55.41l-1.24.12c-.53.05-.94.46-1,.99-.07.63-.06,1.26,0,1.89.06.53.48.94,1.01.98l1.24.1c.25.02.46.17.55.4.1.23.06.48-.1.68l-.79.96c-.34.41-.34.99,0,1.41.4.49.85.94,1.34,1.33.42.34,1,.33,1.41-.02l.95-.8c.19-.16.44-.2.67-.11.23.1.38.3.41.55l.12,1.24c.05.53.46.94.99,1,.3.03.61.05.91.05.33,0,.65-.02.98-.05.53-.06.94-.48.98-1.01l.1-1.24c.02-.25.17-.46.4-.55.23-.1.48-.06.68.1l.96.79c.41.34.99.34,1.41,0,.49-.4.94-.85,1.33-1.34.34-.42.33-1-.02-1.41l-.8-.95c-.16-.19-.2-.44-.11-.67.1-.23.3-.38.55-.41l1.24-.12c.53-.05.94-.46,1-.99.07-.63.07-1.26,0-1.89h0Z"/>
  <circle class="cls-1" cx="12" cy="12" r="3.73"/>
</svg>