<?xml version="1.0" encoding="UTF-8"?>
<svg xmlns="http://www.w3.org/2000/svg" version="1.1" viewBox="0 0 144 144">
  <defs>
    <style>
      .cls-1 {
        fill: #fed250;
      }

      .cls-2 {
        fill: #fff;
      }

      .cls-3 {
        fill: #222;
      }
    </style>
  </defs>
  <!-- Generator: Adobe Illustrator 28.6.0, SVG Export Plug-In . SVG Version: 1.2.0 Build 709)  -->
  <g>
    <g id="Layer_1">
      <g>
        <path class="cls-3" d="M46.9,31.4c-.7,0-1.4.2-2,.5-.7.3-1.3.6-1.9,1-4.9,3.6-6.3,12.5-7,18.1-.3,2.5-.1,3.3,0,5.9,0,3.2,1.7,6.9,2.3,10.1,1.1,5.9,3.7,13.4,2.6,19.3-1,5-.6,6.7-2.9,11.3-.7,1.3-10,13.7-10.5,15.1s.2,3.6,1.2,4.7c2.3,2.6,19.5,15.4,26.2,21.7,1.7,1.6,4.7.8,5.8-1.2l5.3-9.1"/>
        <path class="cls-2" d="M42.5,111c-1.1-1.1-1.3-2.8-.6-4.2,1.6-3,2.3-6.2,4-9.1,1.6-2.8,3-5.3,3.4-8.6.6-4.4,1-8.8-.5-13-1.7-4.4-2.8-9.1-4.6-13.5-.9-2.2-1.8-4.5-2.2-6.9-.6-3.7.2-7.4,1-10.9s.8-3.6,1.2-5.4c.1-.8.2-1.6.5-2.3.1-.3,1.5-2.8,1.7-2.7,3.9.5,7.8,0,11.7-.5,9.9-1.2,19.8-2.5,29.7-3.7,1.5-.2,3-.4,4.5-.2,2.2.2,4.3,1.1,6.3,2,2.8,1.2,5.8,2.8,6.8,5.7.2.6.3,1.2.6,1.8.6.9,1.7,1.3,2.3,2.2,1,1.5,0,3.6.8,5.3.4,1,1.4,1.6,2.1,2.4.8,1,1.1,2.4.8,3.6-.2.8-.5,1.5-.5,2.3s.5,1.8,1,2.7c1.3,2.4,2,5.3,1.2,7.9-.5,1.6-1.5,3-2.6,4.3-8,10.3-18.3,18.5-26.6,28.6-5.4,6.6-9.4,11.3-13.6,18.8-1.6,2.8-1.6,2.6-3,5-.8,1.4-1.5,2.9-2.3,4.2-.3.6-.7,1.1-1.1,1.7-.3.5-.6,1.1-1.1,1.5-.4.4-.8.6-1.4.5-.1,0-.5-.2-.6-.3-3.3-2.4-5.9-5.4-8.7-8.5-2.8-3-5.5-6.2-8.4-9.2-.5-.5-1-1-1.5-1.5h0Z"/>
        <g>
          <path class="cls-3" d="M61.6,131.9c-.9,0-1.7-.4-2.3-1-.7-.8-1.4-1.6-2.1-2.3l-8-8.9c-.9-1-1.9-2.1-2.8-3.1l-5.8-6.4c-1.4-1.3-1.1-3.6-.2-5.1.5-.8,1-1.6,1.5-2.4,1.1-1.8,2.2-3.6,3.2-5.4l.2-.4c1.2-2.1,2.4-4.4,2.9-6.7.3-1.5.8-4.7.8-5.6-.2-3-.6-4.4-1.4-6.6-.2-.8-.5-1.6-.8-2.6v-.5c-1.1-3.3-2-6.4-3.4-9.4l-.4-.8c-1.4-3.2-2.9-6.4-2.9-10.1,0-2,.5-3.9.9-5.7.2-.8.4-1.6.6-2.4.2-.8.3-1.7.5-2.6.4-2,.7-4.1,1.3-6.2.6-2.3,1.5-3.4,2.1-3.9.4-.4,1-.5,1.5-.4,5.2,1.1,6.6,9.3,6.7,10.3h0c0,.1.1,8.4.1,8.4,0,1,.4,2,1.2,2.7l7.4,7.3c.4.4.4,1,0,1.4-.4.4-1,.4-1.4,0l-7.4-7.4c-1.1-1.1-1.7-2.5-1.8-4.1v-8.2c-.6-2.7-2.1-7.7-5.1-8.5-.3.3-.9,1.1-1.4,2.9-.5,2-.9,4-1.3,6-.2.9-.3,1.7-.5,2.6-.2.8-.4,1.7-.6,2.5-.5,1.8-.9,3.4-.9,5.2,0,3.2,1.4,6.3,2.8,9.3l.4.8c1.4,3.2,2.4,6.4,3.3,9.7v.5c.4,1,.7,1.8,1,2.6.7,2.3,1.2,3.8,1.4,7.1,0,1.5-.8,6.1-.8,6.1-.5,2.6-1.8,5-3.1,7.3l-.2.4c-1,1.9-2.1,3.7-3.2,5.5-.5.8-1,1.6-1.4,2.4-.5.8-.7,2.1,0,2.6l5.8,6.4c.9,1,1.9,2.1,2.8,3.1l8,8.9c.7.8,1.4,1.6,2.1,2.3.3.3.7.4,1.2.3.6-.1,1.2-.5,1.6-1.1.5-.7.9-1.5,1.3-2.4.1-.3.3-.6.4-1l1.1-2.3c.1-.3.6-1.1,1.3-2.3.3-.6.6-1.1.7-1.3l.8-1.3c.2-.5.9-1.4,1.4-2.2.2-.3.4-.5.5-.7l9-13.6c.3-.5.9-.6,1.4-.3.5.3.6.9.3,1.4l-9,13.5c-.1.2-.3.5-.5.8-.5.7-1.1,1.6-1.3,2l-.8,1.3c0,.2-.4.7-.8,1.4-.4.7-1.1,1.8-1.2,2.1l-1.1,2.4c-.1.3-.3.6-.4.9-.4,1-.9,2-1.6,2.8-.8.9-1.7,1.6-2.7,1.8-.3,0-.6.1-.8.1ZM46.4,35.4s0,0,0,0c0,0,0,0,0,0Z"/>
          <g>
            <path class="cls-3" d="M101.6,42.8c-.8,0-2.5-.3-5-2.3-.4-.3-.5-1-.2-1.4.3-.4,1-.5,1.4-.2,2.6,2,3.8,1.9,3.8,1.9,1.4-.2,2.2-.6,2.5-1.2.5-1-.2-2.5-.7-3.3h0c-3.1-3.4-11.8-6.1-11.9-6.2-.5-.2-.8-.7-.7-1.2.2-.5.7-.8,1.2-.7.4.1,9.3,2.9,12.9,6.8v.2c.6.8,2,3.2,1,5.3-.6,1.3-1.9,2.1-3.9,2.3,0,0-.2,0-.4,0Z"/>
            <path class="cls-3" d="M104.4,49.8c-1.8,0-3.7-1-4.7-2.7-2.1-3.8,0-6.1,0-6.2.4-.4,1-.4,1.4,0,.4.4.4,1,0,1.4,0,0-1.1,1.3.2,3.8.8,1.4,2.6,2.1,3.9,1.5,1.5-.7,2.3-2.6,2.3-4.2.1-2.5-2.8-3.8-2.9-3.8-.5-.2-.8-.8-.5-1.3.2-.5.8-.8,1.3-.5.2,0,4.3,1.8,4.1,5.8-.1,2.2-1.2,4.8-3.5,5.9-.6.3-1.2.4-1.9.4Z"/>
            <path class="cls-3" d="M107,57.1c-1.8,0-3.4-1-4.2-2.9-1.8-3.9.4-6.1.5-6.2.4-.4,1-.4,1.4,0,.4.4.4,1,0,1.4,0,0-1.2,1.3,0,3.9.8,1.8,2.3,1.8,3,1.6,1.6-.3,3.2-1.9,3.2-3.8,0-2.6-3-4.2-3-4.2-.5-.3-.7-.9-.4-1.4.3-.5.9-.7,1.4-.4.2,0,4,2.3,4,6,0,3.1-2.5,5.3-4.8,5.8-.4,0-.7.1-1.1.1Z"/>
            <path class="cls-3" d="M110.2,64.1s0,0,0,0c-1.8-.1-3.2-.8-4.2-2-2.1-2.5-1.8-6.4-1.8-6.6,0-.5.5-1,1.1-.9.5,0,1,.5.9,1.1h0s-.2,3.2,1.3,5.1c.7.8,1.6,1.2,2.8,1.3.6,0,1,.5.9,1.1,0,.5-.5.9-1,.9Z"/>
            <path class="cls-3" d="M111,69.4c-.3,0-.5-.1-.7-.3-.4-.4-.4-1,0-1.4h0s2.4-2.4,2.3-5.3c-.1-2.8-1.1-5.5-2.8-7.2-.4-.4-.4-1,0-1.4s1-.4,1.4,0c2,2,3.2,5.2,3.3,8.5.1,3.8-2.8,6.7-2.9,6.8-.2.2-.4.3-.7.3Z"/>
          </g>
        </g>
        <g>
          <path class="cls-2" d="M114.9,87.7l-31.8,14c-1.6.7-3.6,0-4.3-1.6L46.9,31.3c-.8-1.6,0-3.6,1.6-4.4l31.5-14.6c1.7-.8,3.6,0,4.4,1.6l32.3,69.4c.8,1.7,0,3.7-1.7,4.4h0Z"/>
          <path class="cls-3" d="M81.8,103c-1.6,0-3.1-.9-3.9-2.5L46,31.7c-.5-1-.5-2.2-.1-3.3.4-1.1,1.2-1.9,2.2-2.4l31.5-14.6c2.1-1,4.7,0,5.7,2.1l32.3,69.4c.5,1.1.5,2.2.1,3.3-.4,1-1.1,1.8-2.1,2.3h0s-.2,0-.2,0l-31.8,14c-.6.2-1.2.4-1.7.4ZM81.3,13c-.3,0-.6,0-1,.2l-31.5,14.6c-.6.3-1,.7-1.2,1.3-.2.6-.2,1.2,0,1.7l32,68.8c.5,1.1,1.9,1.6,3,1.1l31.8-14c.6-.2,1-.7,1.2-1.3.2-.6.2-1.2,0-1.8L83.4,14.3c-.4-.8-1.2-1.3-2.1-1.3ZM114.9,87.7h0,0Z"/>
        </g>
        <g>
          <rect class="cls-1" x="64.7" y="20.2" width="34.3" height="74" rx="2.5" ry="2.5" transform="translate(-16.4 39.4) rotate(-24.7)"/>
          <path class="cls-3" d="M83,98.1c-.4,0-.8,0-1.2-.2-.9-.3-1.6-1-2-1.8l-28.8-62.6c-.8-1.8,0-3.9,1.7-4.7l26.5-12.2c1.8-.8,3.9,0,4.7,1.7l28.8,62.6c.4.9.4,1.8.1,2.7-.3.9-1,1.6-1.8,2l-26.5,12.2c-.5.2-1,.3-1.5.3ZM80.7,18.3c-.2,0-.4,0-.6.1l-26.5,12.2c-.4.2-.7.5-.8.9s-.1.8,0,1.2l28.8,62.6c.2.4.5.7.9.8.4.1.8.1,1.2,0l26.5-12.2c.4-.2.7-.5.8-.9s.1-.8,0-1.2l-28.8-62.6c-.3-.6-.8-.9-1.4-.9ZM53.1,29.7h0,0Z"/>
        </g>
        <g>
          <g>
            <path d="M85.9,49.7c.4-.2.8,0,1,.3s0,.8-.3,1-.8,0-1-.3,0-.8.3-1Z"/>
            <path class="cls-3" d="M86.2,51.6c-.5,0-.9-.3-1.1-.7-.1-.3-.2-.6,0-.9.1-.3.3-.6.6-.7h0c.3-.1.6-.2.9,0,.3.1.6.3.7.6.3.6,0,1.3-.6,1.6-.2,0-.3.1-.5.1ZM86.2,50.2s0,0,0,0h0c0,0-.1,0-.1.1,0,0,0,.1,0,.2,0,.1.2.2.3.1.1,0,.2-.2.1-.3,0,0,0-.1-.1-.1,0,0,0,0,0,0ZM85.9,49.7h0,0Z"/>
          </g>
          <path class="cls-3" d="M75.6,67.5c-.2,0-.3,0-.5,0-.4-.2-.7-.4-.9-.8l-5.1-10.8c-.2-.3-.2-.7,0-1.1.2-.4.4-.7.8-.9l3.1-1.5-.3-1.3c-.1-.7.2-1.4.8-1.7l7.6-3.6c.6-.3,1.4-.1,1.8.4l.9,1.1,2.4-1.2c1.1-.5,2.5,0,3,1.1l4.4,9.5c.3.5.3,1.2,0,1.7-.2.6-.6,1-1.2,1.3l-2.4,1.1c-.5.2-1.1,0-1.3-.5-.2-.5,0-1.1.5-1.3l2.4-1.1c.1,0,.2-.2.1-.3l-4.4-9.5c0,0,0-.1-.1-.1,0,0-.1,0-.2,0l-2.4,1.1c-.8.4-1.8.1-2.3-.6l-.6-.8-6.9,3.2.2,1c.2.9-.3,1.8-1.1,2.2l-2.7,1.3,4.7,9.9,3.1-1.4c.5-.2,1.1,0,1.3.5.2.5,0,1.1-.5,1.3l-3.5,1.6c-.2,0-.4.1-.6.1ZM75.3,65.6s0,0,0,0h0ZM70.9,55h0s0,0,0,0ZM74.6,50.7h0s0,0,0,0ZM81.9,47.7h0s0,0,0,0Z"/>
          <path class="cls-3" d="M82.4,65c-2.1,0-4.2-1.1-5.4-2.9-1.2-1.8-1.4-3.9-.6-5.9.7-1.7,2-3,3.7-3.7h0c0,0,.8-.2.8-.2,2.6-.7,5.5.5,7,2.8,1.2,1.8,1.4,3.9.6,5.9-.8,2-2.4,3.4-4.5,4-.5.1-1,.2-1.6.2ZM81.5,54.1h-.2c-1.5.4-2.6,1.4-3.1,2.8-.5,1.4-.4,2.9.4,4.1,1,1.6,3,2.4,4.8,1.9,1.5-.4,2.6-1.4,3.1-2.7.5-1.4.4-2.9-.4-4.1-1-1.5-2.8-2.3-4.6-2ZM81.1,53.2h0,0Z"/>
        </g>
      </g>
    </g>
  </g>
</svg>