<?xml version="1.0" encoding="UTF-8"?>
<svg xmlns="http://www.w3.org/2000/svg" version="1.1" viewBox="0 0 336 306">
  <defs>
    <style>
      .cls-1 {
        fill: #030303;
      }

      .cls-2 {
        fill: #fed250;
      }

      .cls-3 {
        fill: #020202;
      }

      .cls-4 {
        fill: #fff;
      }
    </style>
  </defs>
  <!-- Generator: Adobe Illustrator 28.6.0, SVG Export Plug-In . SVG Version: 1.2.0 Build 709)  -->
  <g>
    <g id="Layer_1">
      <g>
        <g>
          <path class="cls-1" d="M70,60c-.1,1-.5,1.8-1.5,2.2-1,.4-2,.4-2.8-.5-1.2-1.3-2.3-2.6-3.4-4-.7-.9-.6-1.9,0-2.8.5-.8,1.4-1.2,2.4-1.1,1.4.2,5.4,4.8,5.3,6.2h0Z"/>
          <path class="cls-3" d="M74.9,66.3c.8,0,1.4.3,2,.9,1,1.2,2.1,2.4,3.1,3.6.9,1.2.9,2.5-.4,3.5-1.2.9-2.4.8-3.4-.3-1.1-1.2-2.2-2.5-3.2-3.8-.7-.9-.7-1.9-.2-2.8.4-.8,1.2-1.2,2.1-1.1Z"/>
          <path class="cls-3" d="M63,73.6c-1.9,0-3.1-2.3-1.9-3.8,1.3-1.6,2.9-3,4.8-4,1.8-.9,3.7.6,3.4,2.6-.2,1.5-4.8,5.3-6.2,5.2h0Z"/>
          <path class="cls-3" d="M79.4,55c1,0,1.8.5,2.2,1.4.4.9.4,1.9-.4,2.6-1.4,1.3-2.9,2.5-4.4,3.7-.8.6-1.7.5-2.6,0-.8-.6-1.2-1.3-1.1-2.4.2-1.5,4.7-5.3,6.2-5.3Z"/>
        </g>
        <g>
          <path class="cls-1" d="M259.8,226.5c-.1,1-.5,1.8-1.5,2.2-1,.4-2,.4-2.8-.5-1.2-1.3-2.3-2.6-3.4-4-.7-.9-.6-1.9,0-2.8.5-.8,1.4-1.2,2.4-1.1,1.4.2,5.4,4.8,5.3,6.2h0Z"/>
          <path class="cls-3" d="M264.7,232.8c.8,0,1.5.3,2,.9,1,1.2,2.1,2.4,3.1,3.6.9,1.2.9,2.5-.4,3.5-1.1.9-2.4.8-3.4-.3-1.1-1.2-2.2-2.5-3.2-3.8-.7-.9-.7-1.9-.2-2.8.4-.8,1.1-1.2,2.1-1.1Z"/>
          <path class="cls-3" d="M252.8,240.1c-1.9,0-3.1-2.3-1.9-3.8,1.3-1.6,2.9-3,4.8-4,1.8-.9,3.6.6,3.4,2.6-.2,1.5-4.8,5.3-6.2,5.2h0Z"/>
          <path class="cls-3" d="M269.2,221.6c1,0,1.8.5,2.2,1.4.4.9.4,1.9-.4,2.6-1.4,1.3-2.9,2.6-4.4,3.7-.8.6-1.7.5-2.6,0-.8-.6-1.2-1.4-1.1-2.4.2-1.5,4.7-5.3,6.2-5.3h0Z"/>
        </g>
        <path d="M265.7,84.4c5.7,0,10.4,4.6,10.4,10.3s-4.7,10.3-10.4,10.3c-5.6,0-10.2-4.6-10.3-10.2,0-5.7,4.6-10.4,10.3-10.4ZM265.8,88.6c-3.4,0-6.1,2.6-6.2,5.9,0,3.4,2.8,6.3,6.1,6.2,3.3,0,6.1-2.8,6.1-6.1,0-3.3-2.7-6.1-6.1-6.1h0Z"/>
        <path d="M61.9,189.2c5.7,0,10.4,4.6,10.4,10.3s-4.7,10.3-10.4,10.3c-5.6,0-10.2-4.6-10.3-10.2,0-5.7,4.6-10.4,10.3-10.4ZM62,193.4c-3.4,0-6.1,2.6-6.2,5.9,0,3.4,2.8,6.3,6.2,6.2,3.3,0,6.1-2.8,6.1-6.1,0-3.3-2.7-6.1-6.1-6.1h0Z"/>
        <g>
          <path d="M227.7,258.9c-.5,2.6-19.5,14.4-22.6,14.4l-96,.2c-6.2,0-6.7-6.3-6.7-6.3-.3-7.5-.2-15,0-22.5,0-4,3.5-6.9,8.2-7.4,1.2-.1,4.3-4.9,2-6.6-7.1-5.3-12.4-11.8-16.1-19.2-3.4-6.7-5.2-13.8-5.2-21.1,0-39.3,0-78.5,0-117.8,0-7.9,19-24.9,27.2-26.5,1.3-.2,6-1.5,7.4-1.5,10.2,0,1.4,18.9,1.4,28,0,8.3,0,16.7,0,25v2.8c10.2-6.2,18.2-5.4,26.8,2.1.6.6.9.8,1.7.1,9.3-7.8,15.4-8.3,26.8-2.4v-2.5c0-8.2,0-16.5,0-24.7,0-9.5,8.2-26.6,36.3-28,10.3-.5-.2,18.6-.2,28,0,38.8,0,77.5,0,116.3,0,14.3-5.6,26.8-16.7,37.4-1.1,1.1-1.4,2.1-1.5,3.5,0,1.3,0,2.5,0,3.9.1,2.1.3,3.2,3.1,3.5,3.9.4,6.8,3.5,6.9,7.1.2,7.5,18,5,17.7,12.5l-.3,1.7h0Z"/>
          <path class="cls-4" d="M227,255.3c-.4,2.6-3,4.5-6,4.5h-92.8c-6.1,0-6.6-6.1-6.6-6.1-.3-7.4-.2-14.7,0-22.1,0-3.9,4.2-3.5,8.8-4.1,1.2-.1,3.2.8,3.4-.9.2-1.9,0-7-2.2-8.7-7-5.2-12.2-11.6-15.8-18.9-3.3-6.6-5.1-13.5-5.2-20.7,0-38.5,0-77,0-115.6,0-8.9,7.7-15.6,17.8-15.6,10,0,14.8,8,14.9,17,0,8.2,0,16.3,0,24.5s2.8.3,2.8,1.5c10-6.1,17.9-5.3,26.3,2.1.6.6.9.8,1.7.1,9.1-7.6,15.1-8.2,26.3-2.4,0-.9,2.4-1.5,2.4-2.2,0-8.1,0-16.2,0-24.3,0-9.3,5.3-16.3,15.5-16.3,10.1,0,17.5,6.8,17.6,16,0,38,0,76.1,0,114.1,0,14-5.5,26.3-16.4,36.7-1.1,1-1.4,2.1-1.5,3.4,0,1.3,0,2.5,0,3.8.1,2.1-3,5.9-.2,6.2,3.8.4,6.6,3.4,6.7,7,.1,7.4,3.5,12,3.2,19.3l-.3,1.7h0Z"/>
          <polygon class="cls-2" points="223.4 227.5 226.2 240.2 224 257.5 220.9 259.8 122.5 259.8 122.3 229.3 223.4 227.5"/>
          <path d="M228,257.2c-.5,2.6-3.1,4.6-6.1,4.6h-94.6c-6.2,0-6.7-6.3-6.7-6.3-.3-7.5-.2-15,0-22.5,0-4,3.5-6.9,8.2-7.4,1.2-.1,3.3.8,3.5-1,.2-1.9.8-3.9-1.5-5.6-7.1-5.3-12.4-11.8-16.1-19.2-3.4-6.7-5.2-13.8-5.2-21.1,0-39.3,0-78.5,0-117.8,0-9.1,7.9-15.9,18.1-15.9,10.2,0,17.9,6.9,18,16,0,8.3,0,16.6,0,25v2.8c10.2-6.2,18.2-5.4,26.8,2.1.6.6.9.8,1.7.1,9.3-7.8,15.4-8.3,26.8-2.4v-2.5c0-8.2,0-16.5,0-24.7,0-9.5,7.8-16.4,18.2-16.4,10.3,0,17.9,7,17.9,16.3,0,38.8,0,77.5,0,116.3,0,14.3-5.6,26.8-16.7,37.4-1.1,1.1-1.4,2.1-1.5,3.5,0,1.3,0,2.5,0,3.9.1,2.1.3,3.2,3.1,3.5,3.9.4,6.8,3.5,6.9,7.1.2,7.5.2,15,0,22.5l-.3,1.7h0ZM231.1,119.1c0-19.3,0-38.7,0-58,0-6.5-5.3-11.2-12.4-11.2-7.2,0-12.4,4.8-12.4,11.4,0,25,0,49.9,0,74.9,0,10.9-10.1,18.1-22.4,15.9-1.2-.2-1.9,0-2.8.6-3.5,2.6-7.6,3.8-12.2,3.7-5.6,0-11.3,0-16.9,0-2.4,0-4.2.6-6,2-4.3,3.4-9.3,5.8-15.4,5.8-1.8,0-3.2-.5-3.3-2.3-.1-1.7,1.2-2.6,3-2.6,5.2,0,9.2-2.2,12.7-5.1,2.3-1.9,4.8-2.7,7.9-2.7,6.1,0,12.2,0,18.3,0,7.3-.1,12.7-4.7,12.8-10.7,0-5.9-5.3-10.8-12.6-10.9-13.7-.1-27.4-.1-41.2,0-8,0-13.3,5-13.3,11.9,0,12.1-.1,24.2,0,36.2.2,14.4,6.4,26.7,18.6,36.5,3.2,2.6,5.1,5,4.4,8.8-.3,1.7.5,2.2,2.5,2.2,8.6,0,17.3,0,25.9,0,14.5,0,28.9,0,43.4,0,2.7,0,3.4-.7,3.2-2.9-.2-2.1,0-4.2,0-6.4,0-1.3.5-2.3,1.5-3.3,11.4-10.2,16.8-22.5,16.7-36.7-.1-18.5,0-37.1,0-55.6v-1.7h0ZM218,257.9c3.9,0,4.9-.9,4.9-4.2,0-6.3,0-12.6,0-18.9,0-3.5-1.1-4.4-5-4.4-29,0-58.1,0-87.1,0-3.8,0-4.8.9-4.8,4.2,0,6.2,0,12.4,0,18.6,0,3.9.8,4.6,5.3,4.6,14.4,0,28.8,0,43.1,0s29.1,0,43.7,0ZM127.1,125.2c3.5-.1,7-.1,10.4,0,1.5,0,2.2-.2,2.2-1.7,0-21,0-42.1,0-63.2,0-4.4-3.4-8.2-8.1-9.7-8.2-2.7-16.7,2.5-16.7,10.4,0,22.3,0,44.6,0,66.8s0,.9,0,1.9c3.8-2.8,7.7-4.3,12.2-4.5h0ZM200.6,100.6c0-6.3-5.3-11-12.3-11-7.1,0-12.5,4.6-12.5,11.1,0,7.8,0,15.7,0,23.5,0,1.4.4,2.1,1.9,2.8,8.1,3.6,11.6,11.1,8.8,18.6-.8,2,0,2.2,1.9,2.2,6.7,0,12.1-4.8,12.2-10.7.1-6.1,0-12.2,0-18.4s0-12.1,0-18.1h0ZM170.1,111.6c0-3.9.1-7.8,0-11.8-.2-5.8-5.6-10.2-12.3-10.2-6.7,0-12.3,4.4-12.4,10.1-.2,7.9,0,15.8,0,23.7,0,1.3.5,1.7,2,1.7,6.9,0,13.9,0,20.9,0,1.6,0,2.1-.4,2.1-1.8,0-3.9,0-7.8,0-11.8h0Z"/>
        </g>
      </g>
    </g>
  </g>
</svg>