<?xml version="1.0" encoding="UTF-8"?>
<svg id="Layer_1" xmlns="http://www.w3.org/2000/svg" viewBox="0 0 336 306">
  <defs>
    <style>
      .cls-1 {
        fill: #5b5b5b;
      }

      .cls-2 {
        fill: #231f20;
      }

      .cls-3 {
        fill: #7a7a7a;
      }

      .cls-4 {
        fill: #2c2c2c;
      }

      .cls-5 {
        fill: #979797;
      }

      .cls-6 {
        fill: #fed250;
      }

      .cls-7 {
        fill: #4e4e4e;
      }

      .cls-8 {
        fill: #fff;
      }

      .cls-9 {
        fill: #656263;
      }

      .cls-10 {
        fill: #fee589;
      }

      .cls-11 {
        fill: #eee;
      }

      .cls-12 {
        fill: #222;
      }
    </style>
  </defs>
  <g>
    <path class="cls-12" d="M224.7,234.57H83.14c-.74,0-1.33-.6-1.33-1.34v-111.39c0-.74,3.35-11.07,4.08-11.07l138.81,9.73c.74,0,1.33.6,1.33,1.34l8.32,104.02c0,.74-8.92,8.71-9.65,8.71Z"/>
    <path class="cls-12" d="M224.7,235.57H83.14c-1.29,0-2.34-1.05-2.34-2.34v-111.39c0-.87,1.8-6.09,1.82-6.14,2.06-5.93,2.54-5.93,3.27-5.93l138.88,9.73h0c1.22,0,2.26,1.05,2.26,2.34l8.32,103.94c0,1.61-9.58,9.8-10.65,9.8ZM224.41,233.61h0ZM86.31,111.81c-.92,1.68-3.37,9.04-3.51,10.09v111.33c0,.18.15.33.33.33h141.37c1.37-.78,7.8-6.56,8.82-7.92l-8.3-103.72c0-.26-.15-.41-.33-.41l-138.38-9.7Z"/>
  </g>
  <g>
    <g>
      <g>
        <path class="cls-9" d="M269.1,229.94c-.16-.02-.32,0-.48.03l-8.53,1.89c-.8.18-1.3.97-1.13,1.77.18.8.97,1.3,1.77,1.13l8.53-1.89c.8-.18,1.31-.97,1.13-1.77-.14-.64-.67-1.09-1.29-1.15Z"/>
        <path class="cls-9" d="M268,224.69c-.16-.02-.32,0-.48.03l-8.53,1.89c-.8.18-1.31.97-1.13,1.77.18.8.97,1.3,1.77,1.13l8.53-1.89c.8-.18,1.3-.97,1.13-1.77-.14-.64-.67-1.09-1.29-1.15Z"/>
        <g>
          <path class="cls-2" d="M270.72,236.11c-1.21.29-2.58-.07-3.84-1.18-2.6-2.27-3.77-6.79-2.61-10.1.6-1.7,1.69-2.75,2.96-3.06l10.08-2.45c-1.28.31-2.37,1.36-2.96,3.06-1.16,3.31,0,7.83,2.61,10.1,1.26,1.1,2.63,1.47,3.84,1.18l-10.08,2.45Z"/>
          <path class="cls-9" d="M276.96,232.48c2.6,2.27,5.65,1.43,6.8-1.88,1.16-3.31,0-7.83-2.61-10.1-2.6-2.27-5.65-1.43-6.8,1.88-1.16,3.31,0,7.83,2.61,10.1Z"/>
        </g>
      </g>
      <path class="cls-2" d="M283.57,227.31c-1.01,0-2.07-.07-3.18-.22-.55-.07-.93-.58-.86-1.12.07-.55.57-.93,1.12-.86,11.7,1.57,17.38-6.91,17.44-6.99l.16-.19c.61-.56.9-1.26.88-2.14-.05-4.02-6.21-10.29-8.58-12.36-.15-.14-2.8-2.74-4.7-6.29-2.63-4.91-2.52-9.24.32-12.5,5.67-6.52,7.23-13.36,7.38-14.07.06-1.29-.33-2.34-1.2-3.21-3.17-3.17-11.24-2.74-11.32-2.73-.44.06-12.67,1.67-19.67,1.02-2.35-.22-3.86-1.05-4.49-2.47-.94-2.12.57-4.66,1.16-5.54-.04-1.08-.41-1.88-1.13-2.46-2.34-1.86-7.8-1.01-9.71-.53-.08.02-3.73.79-12.52,4.24-9.16,3.59-25.39,1.27-26.08,1.17-.55-.08-.92-.59-.84-1.13.08-.55.58-.93,1.13-.85.16.02,16.39,2.34,25.06-1.06,8.99-3.52,12.66-4.29,12.81-4.32.27-.07,7.81-1.94,11.4.91,1.29,1.03,1.93,2.5,1.89,4.37v.32s-.2.26-.2.26c-.46.62-1.66,2.64-1.13,3.82.39.88,1.76,1.18,2.84,1.28,6.78.63,19.17-1,19.3-1.02.44-.03,9.11-.5,12.92,3.31,1.29,1.29,1.89,2.91,1.78,4.81l-.02.13c-.06.31-1.52,7.79-7.85,15.07-5.53,6.36,4.12,15.92,4.22,16.01.34.29,9.14,8.08,9.22,13.8.02,1.41-.46,2.61-1.44,3.55-.68.99-5.88,8-16.12,8Z"/>
      <path class="cls-4" d="M255.84,185.9h.12c.34,0,.62.28.62.62v2.54h-1.37v-2.54c0-.34.28-.62.62-.62Z" transform="translate(148.9 -111.16) rotate(34.06)"/>
      <rect class="cls-12" x="251.41" y="187.02" width="1.94" height="11.05" transform="translate(-49.91 289.45) rotate(-55.11)"/>
      <path class="cls-12" d="M255.91,189.23l-1.6-1.2c1.85-2.47,3.54-5.08,5.02-7.77,1.17-2.11,2.24-4.33,3.09-6.39.97-2.35,1.31-3.59,1.61-4.68.24-.88.47-1.72.97-2.91,1.61-3.81,3.79-5.97,5.38-7.54,1.57-1.55,2.39-2.42,2.34-3.77-.06-1.86-1.7-3.69-5.31-5.93-10.38-6.42-25.21-8.93-35.82-9.9l.18-1.99c10.83.99,25.98,3.57,36.69,10.19,2.86,1.77,6.16,4.23,6.26,7.57.07,2.28-1.32,3.65-2.94,5.25-1.55,1.54-3.48,3.45-4.94,6.89-.45,1.07-.65,1.81-.89,2.66-.31,1.15-.67,2.46-1.69,4.92-.88,2.14-1.99,4.42-3.19,6.6-1.52,2.76-3.26,5.45-5.17,8Z"/>
      <g>
        <polygon class="cls-6" points="257.94 216.66 256.87 218.05 262.26 220.94 257.94 216.66"/>
        <polygon class="cls-6" points="262.88 214 260.99 214.52 264.34 220.48 262.88 214"/>
        <polygon class="cls-6" points="267.55 212.71 265.59 212.61 266.91 219.32 267.55 212.71"/>
      </g>
      <g>
        <g>
          <path class="cls-3" d="M308.46,148.07c-.35,0-.68-.18-.87-.5-5.25-9.17-13.45-13.74-24.36-13.56-3.64.06-6.07.61-8.65,1.19-2.71.61-5.51,1.24-9.83,1.34-10.99.25-16.39-3.28-20.75-6.12-3.67-2.39-6.32-4.11-11.02-3.02-.54.12-1.08-.21-1.2-.75-.12-.54.21-1.08.75-1.2,5.54-1.29,8.79.83,12.57,3.29,4.35,2.83,9.27,6.02,19.62,5.79,4.13-.1,6.83-.7,9.44-1.29,2.56-.58,5.21-1.18,9.06-1.24,11.69-.21,20.49,4.72,26.13,14.56.28.48.11,1.09-.37,1.36-.16.09-.33.13-.5.13Z"/>
          <path class="cls-12" d="M308.46,148.57c-.54,0-1.04-.29-1.3-.75-5.06-8.83-12.91-13.31-23.32-13.31-.2,0-.4,0-.61,0-3.59.06-6,.6-8.54,1.18-2.73.62-5.56,1.25-9.93,1.35-11.16.25-16.59-3.31-21-6.17-3.74-2.43-6.17-4.02-10.67-2.97-.81.19-1.61-.32-1.8-1.12-.19-.81.32-1.61,1.12-1.8,5.74-1.34,9.08.84,12.94,3.35,4.29,2.79,9.12,5.95,19.34,5.72,4.08-.09,6.75-.7,9.34-1.28,2.59-.58,5.26-1.19,9.16-1.25,11.9-.22,20.81,4.77,26.57,14.82.2.35.25.75.15,1.14-.11.39-.35.71-.7.91-.22.13-.48.2-.74.2ZM283.85,133.51c10.79,0,18.92,4.65,24.18,13.82.13.23.45.32.68.19.12-.07.2-.17.23-.3.04-.13.02-.26-.05-.38-5.56-9.71-14.17-14.54-25.69-14.31-3.79.06-6.42.65-8.95,1.22-2.64.59-5.36,1.21-9.54,1.31-10.51.24-15.5-3.01-19.9-5.88-3.68-2.39-6.86-4.46-12.18-3.22-.27.06-.44.33-.37.6.06.27.33.44.6.37,4.91-1.14,7.78.72,11.4,3.08,4.33,2.82,9.7,6.3,20.47,6.04,4.28-.1,7.05-.72,9.73-1.33,2.6-.59,5.06-1.14,8.75-1.2.21,0,.42,0,.63,0Z"/>
        </g>
        <path class="cls-12" d="M310.42,160.06s-.02,0-.04,0c-.28-.02-.48-.26-.46-.54.09-1.24-1.27-8.63-1.8-11.37-.05-.27.12-.53.4-.59.26-.05.53.12.59.4.2,1.02,1.93,10.03,1.82,11.63-.02.26-.24.46-.5.46Z"/>
        <path class="cls-12" d="M314.11,157.13c-.13,0-.26-.07-.33-.19l-5.13-8.95c-.1-.18-.04-.41.14-.51.18-.1.41-.04.51.14l5.13,8.95c.1.18.04.41-.14.51-.06.03-.12.05-.19.05Z"/>
        <path class="cls-12" d="M317.33,157.21c-.18,0-.35-.1-.44-.27-.58-1.1-5.98-6.78-8.01-8.87-.19-.2-.19-.51,0-.71.2-.19.52-.19.71.01.76.78,7.43,7.67,8.18,9.1.13.24.03.55-.21.67-.07.04-.15.06-.23.06Z"/>
      </g>
    </g>
    <path class="cls-12" d="M253.88,188.05h.4c1.12,0,2.04.91,2.04,2.04v2.02h-4.47v-2.02c0-1.12.91-2.04,2.04-2.04Z" transform="translate(153.54 -110.88) rotate(34.73)"/>
    <rect class="cls-12" x="248.06" y="189.25" width="4.79" height="12.11" transform="translate(-53.03 288.93) rotate(-55.09)"/>
    <rect class="cls-12" x="247.49" y="193.68" width="2.03" height="8.84" transform="translate(-56.17 288.49) rotate(-55.08)"/>
    <path class="cls-8" d="M254.95,198.04c-.1,0-.2-.03-.29-.09l-8.32-5.8c-.23-.16-.28-.47-.12-.7.16-.23.47-.28.7-.12l8.32,5.8c.23.16.28.47.12.7-.1.14-.25.21-.41.21Z"/>
    <path class="cls-8" d="M254.1,199.26c-.1,0-.2-.03-.29-.09l-8.32-5.81c-.23-.16-.28-.47-.12-.7.16-.23.47-.28.7-.12l8.32,5.81c.23.16.28.47.12.7-.1.14-.25.21-.41.21Z"/>
    <g>
      <g>
        <rect class="cls-8" x="90.85" y="112.65" width="143.61" height="113.4" rx="1.33" ry="1.33"/>
        <path class="cls-12" d="M233.13,227.05H92.18c-1.28,0-2.33-1.04-2.33-2.33v-110.74c0-1.28,1.04-2.33,2.33-2.33h140.95c1.28,0,2.33,1.04,2.33,2.33v110.74c0,1.28-1.04,2.33-2.33,2.33ZM92.18,113.65c-.18,0-.33.15-.33.33v110.74c0,.18.15.33.33.33h140.95c.18,0,.33-.15.33-.33v-110.74c0-.18-.15-.33-.33-.33H92.18Z"/>
      </g>
      <g>
        <rect class="cls-5" x="95.88" y="98.29" width="42.25" height="70.8" rx="1.08" ry="1.08" transform="translate(-13.64 13.29) rotate(-6.15)"/>
        <path class="cls-12" d="M100.74,172.04c-1.05,0-1.95-.79-2.06-1.85l-7.35-68.25c-.06-.55.1-1.09.45-1.52s.84-.7,1.4-.76l39.86-4.29c1.14-.13,2.16.7,2.29,1.84l7.35,68.25c.12,1.14-.7,2.16-1.84,2.29l-39.86,4.29c-.08,0-.15.01-.22.01ZM133.26,97.34h0l-39.86,4.29-.07.08,7.35,68.25s.05.07.08.07l39.86-4.29s.07-.05.07-.08l-7.35-68.25s-.04-.07-.08-.07Z"/>
      </g>
      <g>
        <rect class="cls-8" x="99.88" y="98.68" width="42.25" height="70.8" transform="translate(-44.21 61.11) rotate(-24.1)"/>
        <path class="cls-12" d="M115.68,176.34l-29.73-66.45,40.39-18.07,29.73,66.45-40.39,18.07ZM88.59,110.9l28.1,62.8,36.74-16.44-28.1-62.8-36.74,16.44Z"/>
      </g>
      <g>
        <path class="cls-10" d="M183.96,69.71l-7.91,10.27-60.66-10.81c-1.74-.31-3.41.85-3.72,2.59l-14.2,79.66c-.31,1.74.85,3.41,2.59,3.72l116.34,20.73c1.74.31,3.41-.85,3.72-2.59l13.7-76.9,1.05-5.92,1.76-9.86c.31-1.74-.85-3.41-2.59-3.72l-46.99-8.37c-1.18-.21-2.37.25-3.1,1.2Z"/>
        <path class="cls-12" d="M216.97,176.92c-.24,0-.49-.02-.74-.07l-116.34-20.73c-2.28-.41-3.81-2.59-3.4-4.88l14.2-79.66c.41-2.28,2.59-3.81,4.88-3.4l60.06,10.7,7.54-9.79c.96-1.25,2.52-1.85,4.07-1.57l46.99,8.37c1.11.2,2.07.81,2.71,1.73.64.92.89,2.04.69,3.14l-16.52,92.68c-.36,2.03-2.14,3.47-4.14,3.47ZM114.83,70.11c-1.05,0-1.98.75-2.17,1.82l-14.2,79.66c-.1.58.03,1.17.36,1.65.34.48.84.81,1.42.91l116.34,20.73c.58.1,1.16-.03,1.65-.36.48-.34.81-.84.91-1.42l16.52-92.68c.1-.58-.03-1.17-.36-1.65s-.84-.81-1.42-.91l-46.99-8.37c-.81-.14-1.63.17-2.13.82h0s-8.28,10.75-8.28,10.75l-61.26-10.92c-.13-.02-.26-.03-.39-.03Z"/>
      </g>
      <g>
        <polygon class="cls-8" points="217.78 169.29 101.25 148.53 114.95 71.63 127.49 60.64 233.77 79.58 217.78 169.29"/>
        <path class="cls-12" d="M218.59,170.46l-118.5-21.12,13.94-78.23,13.16-11.54,107.74,19.2-16.34,91.69ZM102.41,147.72l114.57,20.42,15.64-87.75-104.82-18.68-11.91,10.44-13.47,75.57Z"/>
      </g>
      <g>
        <path class="cls-6" d="M182.96,75.32l-7.91,10.27-60.66-10.81c-1.74-.31-3.41.85-3.72,2.59l-14.2,79.66c-.31,1.74.85,3.41,2.59,3.72l116.34,20.73c1.74.31,3.41-.85,3.72-2.59l13.7-76.9,1.05-5.92,1.76-9.86c.31-1.74-.85-3.41-2.59-3.72l-46.99-8.37c-1.18-.21-2.37.25-3.1,1.2Z"/>
        <path class="cls-12" d="M215.98,182.54c-.25,0-.5-.02-.75-.07l-116.34-20.73c-1.11-.2-2.07-.81-2.71-1.73-.64-.92-.89-2.04-.69-3.14l14.2-79.66c.41-2.28,2.59-3.81,4.88-3.4l60.06,10.7,7.54-9.79c.96-1.25,2.51-1.85,4.07-1.57l46.99,8.37c2.28.41,3.81,2.59,3.4,4.88l-16.52,92.68c-.2,1.11-.81,2.07-1.73,2.71-.71.5-1.54.76-2.4.76ZM113.83,75.73c-1.05,0-1.98.75-2.17,1.82l-14.2,79.66c-.1.58.03,1.17.36,1.65.34.48.84.81,1.42.91l116.34,20.73c.58.11,1.17-.03,1.65-.36.48-.34.81-.84.91-1.42l16.52-92.68c.21-1.2-.59-2.34-1.78-2.56l-46.99-8.37c-.8-.14-1.63.17-2.13.82l-8.28,10.75-61.25-10.92c-.13-.02-.26-.03-.39-.03Z"/>
      </g>
      <g>
        <g>
          <path class="cls-12" d="M154.55,91c-.74,4.24-3.2,7.32-5.52,6.91-2.34-.41-3.61-4.15-2.87-8.38.18-1.06.48-2.03.86-2.9.12-.26.34-.46.62-.55l5.19-1.71c.49-.16,1.04.06,1.25.53.69,1.56.89,3.75.48,6.09Z"/>
          <path class="cls-12" d="M188.18,96.57c-1.03,4.17-.02,7.99,2.27,8.55,2.31.57,4.98-2.34,6-6.51.26-1.04.38-2.05.38-3,0-.29-.13-.56-.34-.75l-4.06-3.65c-.38-.34-.97-.36-1.35-.02-1.26,1.15-2.32,3.07-2.89,5.38Z"/>
        </g>
        <path class="cls-12" d="M180.92,130.41c-1.07-5.06-5.16-9.51-10.18-11.07-5.99-1.86-12.68.35-18.84,6.22l-1.38-1.45c6.71-6.39,14.1-8.77,20.81-6.68,5.78,1.79,10.31,6.72,11.55,12.56l-1.96.41Z"/>
      </g>
      <g>
        <rect class="cls-11" x="95.31" y="124.02" width="134.7" height="91.04" rx=".67" ry=".67"/>
        <path class="cls-12" d="M229.34,216.07H95.98c-.92,0-1.67-.75-1.67-1.67v-89.7c0-.92.75-1.67,1.67-1.67h133.36c.92,0,1.67.75,1.67,1.67v89.7c0,.92-.75,1.67-1.67,1.67ZM96.31,214.07h132.7v-89.04H96.31v89.04Z"/>
      </g>
      <rect class="cls-8" x="145.73" y="133.48" width="32.51" height="10.69" rx=".08" ry=".08"/>
      <rect class="cls-1" x="141.64" y="149.51" width="40.67" height="4.4"/>
      <g>
        <path class="cls-12" d="M223.81,212.52h-16.38c-.55,0-1-.45-1-1s.45-1,1-1h16.38c.55,0,1,.45,1,1s-.45,1-1,1Z"/>
        <path class="cls-12" d="M223.81,209.85h-3.08c-.55,0-1-.45-1-1s.45-1,1-1h3.08c.55,0,1,.45,1,1s-.45,1-1,1Z"/>
      </g>
      <g>
        <path class="cls-12" d="M171.34,137.38h-18.71c-.55,0-1-.45-1-1s.45-1,1-1h18.71c.55,0,1,.45,1,1s-.45,1-1,1Z"/>
        <path class="cls-12" d="M175.03,140.5h-26.1c-.55,0-1-.45-1-1s.45-1,1-1h26.1c.55,0,1,.45,1,1s-.45,1-1,1Z"/>
      </g>
      <g>
        <path class="cls-12" d="M105.88,129.55h-6.48c-.55,0-1-.45-1-1s.45-1,1-1h6.48c.55,0,1,.45,1,1s-.45,1-1,1Z"/>
        <path class="cls-12" d="M119.44,133.89h-20.05c-.55,0-1-.45-1-1s.45-1,1-1h20.05c.55,0,1,.45,1,1s-.45,1-1,1Z"/>
      </g>
    </g>
    <path class="cls-12" d="M25.72,221.49c-11.48-14.1-15.4-24.17-11.99-30.79,2.24-4.35,6.95-5.75,12.41-7.37,6.09-1.81,13.68-4.07,20.43-11.27,2.66-2.84,3.75-4.91,4.8-6.9,1.05-2,2.15-4.08,4.71-6.77,7.66-8.03,19.36-12.13,34.79-12.19v2c-14.85.06-26.07,3.95-33.34,11.57-2.37,2.49-3.35,4.35-4.39,6.32-1.11,2.12-2.27,4.3-5.11,7.34-7.12,7.6-14.99,9.94-21.32,11.82-5.22,1.55-9.35,2.78-11.2,6.37-2.96,5.76,1,15.39,11.77,28.61l-1.55,1.26Z"/>
    <g>
      <path class="cls-7" d="M24.55,215.39h0c.75,0,1.36.61,1.36,1.36v4.91h-2.72v-4.91c0-.75.61-1.36,1.36-1.36Z" transform="translate(-122.73 55.24) rotate(-35.64)"/>
      <path class="cls-12" d="M28.97,219.9h0c2.98,0,5.4,2.42,5.4,5.4v4.36h-10.8v-4.36c0-2.98,2.42-5.4,5.4-5.4Z" transform="translate(-125.55 58.98) rotate(-35.64)"/>
      <rect class="cls-7" x="24.22" y="227.98" width="19.18" height="7.59" transform="translate(-126.57 61.06) rotate(-34.91)"/>
      <rect class="cls-12" x="29.85" y="234.59" width="14.02" height="3.24" transform="translate(-128.55 63.61) rotate(-34.91)"/>
      <path class="cls-7" d="M36.19,238.84h1.92v7.19c0,.53-.43.96-.96.96h0c-.53,0-.96-.43-.96-.96v-7.19h0Z" transform="translate(-132.34 64.98) rotate(-34.91)"/>
      <path class="cls-7" d="M41.73,235.01h1.92v7.19c0,.53-.43.96-.96.96h0c-.53,0-.96-.43-.96-.96v-7.19h0Z" transform="translate(-129.15 67.46) rotate(-34.91)"/>
    </g>
    <g>
      <path class="cls-2" d="M66.56,175.72c-1.1.42-2.3.59-3.46.48-1.3-.13-2.36-.85-3.29-1.5-.47-.32-.91-.62-1.34-.83-1.13-.54-2.5-.76-3.98-.63-2.26.2-4.47,1.18-6.61,2.12-.58.25-1.17.52-1.76.76-1.79.74-6.34,2.27-9.96.37-2.13-1.11-3.53-3.18-4.17-6.13-1.75-8.12-5.9-10.78-9.23-12.91-2.91-1.86-5.66-3.62-4.49-8.43,2.07-8.55,8.02-10.61,8.27-10.69.49-.16,1.01.1,1.18.59.16.49-.11,1.01-.59,1.18h0c-.21.07-5.23,1.87-7.05,9.36-.85,3.52.76,4.55,3.69,6.43,3.43,2.2,8.13,5.21,10.05,14.08.52,2.39,1.59,4.03,3.21,4.87,2.92,1.53,6.83.2,8.38-.44.57-.24,1.16-.5,1.72-.75,2.27-1,4.62-2.04,7.19-2.28,1.81-.16,3.52.11,4.96.8.56.27,1.09.63,1.59.98.82.56,1.6,1.1,2.42,1.18,1.48.14,3.1-.36,4.23-1.31,1.38-1.17,2.64-2.49,3.86-3.78,1.74-1.84,3.55-3.74,5.79-5.27,3.77-2.58,8.02-4.4,12.12-6.16l.47-.2c.47-.2,1.02.02,1.22.49.2.47-.02,1.02-.49,1.22l-.47.2c-4.02,1.73-8.18,3.51-11.81,5.99-2.08,1.42-3.74,3.17-5.49,5.01-1.25,1.32-2.55,2.68-4.01,3.92-.63.53-1.36.96-2.15,1.26Z"/>
      <g>
        <path class="cls-2" d="M28.28,142.21c-.52.58-1.36.88-2.41.75-2.15-.25-4.36-2.18-4.93-4.3-.3-1.09-.1-2.02.45-2.63l4.35-4.85c-.55.61-.74,1.54-.45,2.64.57,2.12,2.78,4.05,4.93,4.3,1.05.12,1.89-.17,2.41-.75l-4.35,4.85Z"/>
        <path class="cls-9" d="M30.22,138.12c2.15.25,3.43-1.26,2.86-3.39-.57-2.12-2.78-4.05-4.93-4.3-2.15-.25-3.43,1.26-2.86,3.39.57,2.12,2.78,4.05,4.93,4.3Z"/>
      </g>
      <path class="cls-2" d="M28.72,133.8c-.3.29-.84.22-1.21-.17-.37-.38-.43-.93-.13-1.22.3-.29.84-.22,1.21.17.37.38.43.93.13,1.22Z"/>
      <path class="cls-2" d="M31.36,136.15c-.3.29-.84.22-1.21-.17-.37-.38-.43-.93-.13-1.22.3-.29.84-.22,1.21.17.37.38.43.93.13,1.22Z"/>
    </g>
    <g>
      <polygon class="cls-6" points="39.28 122.36 37.32 121.19 34.41 128.65 39.28 122.36"/>
      <polygon class="cls-6" points="43.51 128.35 42.54 125.98 35.34 131.27 43.51 128.35"/>
      <polygon class="cls-6" points="45.92 134.21 45.74 131.65 37.24 134.42 45.92 134.21"/>
    </g>
    <g>
      <polygon class="cls-6" points="61.7 208.03 59.44 207.66 59.46 215.66 61.7 208.03"/>
      <polygon class="cls-6" points="67.83 212.07 66.06 210.21 61.28 217.77 67.83 212.07"/>
      <polygon class="cls-6" points="72.21 216.65 71.11 214.33 64.2 220.01 72.21 216.65"/>
    </g>
    <g>
      <path class="cls-12" d="M55.3,222.55c-.17,0-.33-.04-.49-.13-9.06-5.06-13.62-13.05-13.57-23.74.02-3.51.54-5.94,1.04-8.28.51-2.38,1.04-4.84,1.08-8.6.17-13.51.79-15.76,2.04-20.25.43-1.54.91-3.29,1.49-5.87,1.04-4.71,4.15-8.8,6.4-11.46,2.17-2.57,4.71-5.1,7.98-7.97.53-.46,1.05-.93,1.57-1.39,3.55-3.17,6.91-6.17,11.48-7.32,4.37-1.1,10.66-1.71,15.79,1.59.46.3.6.92.3,1.38-.3.46-.92.6-1.38.3-4.52-2.92-10.23-2.33-14.22-1.33-4.09,1.03-7.27,3.86-10.63,6.87-.52.47-1.05.94-1.58,1.4-3.2,2.8-5.67,5.27-7.77,7.76-2.11,2.5-5.03,6.32-5.98,10.6-.58,2.63-1.08,4.41-1.51,5.97-1.2,4.32-1.8,6.48-1.97,19.73-.05,3.95-.6,6.52-1.13,8.99-.5,2.35-.98,4.57-1,7.87-.05,9.91,4.17,17.31,12.55,21.99.48.27.65.88.38,1.36-.18.33-.52.51-.87.51Z"/>
      <path class="cls-12" d="M66.58,223.73c-1.87,0-10.74-1.88-11.78-2.1-.27-.06-.44-.32-.38-.59.06-.27.33-.44.59-.38,4.13.88,10.64,2.14,11.64,2.08.25-.02.52.18.54.46.02.28-.18.52-.46.54-.04,0-.09,0-.15,0Z"/>
      <path class="cls-12" d="M64.17,226.12c-.07,0-.14-.02-.2-.06l-16.94-10.96c-.17-.11-.22-.34-.11-.52.11-.17.35-.22.52-.11l16.94,10.96c.17.11.22.34.11.52-.07.11-.19.17-.31.17Z"/>
      <path class="cls-12" d="M64.17,230.04c-.08,0-.16-.02-.23-.05-1.32-.67-8.24-7.32-9.03-8.07-.2-.19-.21-.51-.01-.71.19-.2.51-.21.71-.01,3.04,2.92,7.9,7.44,8.79,7.9.25.13.34.43.22.67-.09.17-.26.27-.45.27Z"/>
    </g>
    <g>
      <polygon class="cls-6" points="314.53 135.98 312.49 135.45 311.81 142.81 314.53 135.98"/>
      <polygon class="cls-6" points="319.81 140.22 318.35 138.36 313.31 144.9 319.81 140.22"/>
      <polygon class="cls-6" points="323.45 144.81 322.64 142.58 315.8 147.21 323.45 144.81"/>
    </g>
  </g>
  <polygon class="cls-12" points="91.63 100.56 84.72 110.6 93.56 107.8 91.63 100.56"/>
  <polygon class="cls-12" points="111.83 69.31 110.34 70.87 93.84 99.78 106.78 98.75 111.83 69.31"/>
</svg>